<svg width="530" height="390" viewBox="0 0 530 390" fill="none" xmlns="http://www.w3.org/2000/svg">
<path d="M105.624 14.476V41H100.304V29.714H88.942V41H83.622V14.476H88.942V25.382H100.304V14.476H105.624ZM109.492 30.398C109.492 28.27 109.91 26.3827 110.746 24.736C111.608 23.0893 112.76 21.8227 114.204 20.936C115.674 20.0493 117.308 19.606 119.106 19.606C120.677 19.606 122.045 19.9227 123.21 20.556C124.401 21.1893 125.351 21.9873 126.06 22.95V19.948H131.418V41H126.06V37.922C125.376 38.91 124.426 39.7333 123.21 40.392C122.02 41.0253 120.639 41.342 119.068 41.342C117.295 41.342 115.674 40.886 114.204 39.974C112.76 39.062 111.608 37.7827 110.746 36.136C109.91 34.464 109.492 32.5513 109.492 30.398ZM126.06 30.474C126.06 29.182 125.807 28.08 125.3 27.168C124.794 26.2307 124.11 25.5213 123.248 25.04C122.387 24.5333 121.462 24.28 120.474 24.28C119.486 24.28 118.574 24.5207 117.738 25.002C116.902 25.4833 116.218 26.1927 115.686 27.13C115.18 28.042 114.926 29.1313 114.926 30.398C114.926 31.6647 115.18 32.7793 115.686 33.742C116.218 34.6793 116.902 35.4013 117.738 35.908C118.6 36.4147 119.512 36.668 120.474 36.668C121.462 36.668 122.387 36.4273 123.248 35.946C124.11 35.4393 124.794 34.73 125.3 33.818C125.807 32.8807 126.06 31.766 126.06 30.474ZM145.392 36.098L150.712 19.948H156.374L148.584 41H142.124L134.372 19.948H140.072L145.392 36.098ZM178.932 30.018C178.932 30.778 178.882 31.462 178.78 32.07H163.39C163.517 33.59 164.049 34.7807 164.986 35.642C165.924 36.5033 167.076 36.934 168.444 36.934C170.42 36.934 171.826 36.0853 172.662 34.388H178.4C177.792 36.4147 176.627 38.0867 174.904 39.404C173.182 40.696 171.066 41.342 168.558 41.342C166.532 41.342 164.708 40.8987 163.086 40.012C161.49 39.1 160.236 37.8207 159.324 36.174C158.438 34.5273 157.994 32.6273 157.994 30.474C157.994 28.2953 158.438 26.3827 159.324 24.736C160.211 23.0893 161.452 21.8227 163.048 20.936C164.644 20.0493 166.481 19.606 168.558 19.606C170.56 19.606 172.346 20.0367 173.916 20.898C175.512 21.7593 176.741 22.988 177.602 24.584C178.489 26.1547 178.932 27.966 178.932 30.018ZM173.422 28.498C173.397 27.13 172.903 26.0407 171.94 25.23C170.978 24.394 169.8 23.976 168.406 23.976C167.089 23.976 165.974 24.3813 165.062 25.192C164.176 25.9773 163.631 27.0793 163.428 28.498H173.422ZM190.502 30.436C190.502 28.3333 190.933 26.4713 191.794 24.85C192.681 23.2033 193.871 21.924 195.366 21.012C196.861 20.1 198.507 19.644 200.306 19.644C201.801 19.644 203.118 19.9353 204.258 20.518C205.423 21.0753 206.361 21.7973 207.07 22.684V19.948H212.428V51.032H207.07V38.112C206.361 39.024 205.411 39.784 204.22 40.392C203.029 41 201.687 41.304 200.192 41.304C198.419 41.304 196.785 40.848 195.29 39.936C193.821 38.9987 192.655 37.7067 191.794 36.06C190.933 34.4133 190.502 32.5387 190.502 30.436ZM207.07 30.474C207.07 29.182 206.804 28.0673 206.272 27.13C205.74 26.1927 205.043 25.4833 204.182 25.002C203.346 24.5207 202.447 24.28 201.484 24.28C200.547 24.28 199.647 24.5207 198.786 25.002C197.95 25.4833 197.266 26.1927 196.734 27.13C196.202 28.042 195.936 29.144 195.936 30.436C195.936 31.728 196.202 32.8553 196.734 33.818C197.266 34.7553 197.95 35.4647 198.786 35.946C199.647 36.4273 200.547 36.668 201.484 36.668C202.447 36.668 203.346 36.4273 204.182 35.946C205.043 35.4647 205.74 34.7553 206.272 33.818C206.804 32.8807 207.07 31.766 207.07 30.474ZM237.498 19.948V41H232.14V38.34C231.456 39.252 230.557 39.974 229.442 40.506C228.353 41.0127 227.162 41.266 225.87 41.266C224.223 41.266 222.767 40.924 221.5 40.24C220.233 39.5307 219.233 38.5047 218.498 37.162C217.789 35.794 217.434 34.1727 217.434 32.298V19.948H222.754V31.538C222.754 33.21 223.172 34.502 224.008 35.414C224.844 36.3007 225.984 36.744 227.428 36.744C228.897 36.744 230.05 36.3007 230.886 35.414C231.722 34.502 232.14 33.21 232.14 31.538V19.948H237.498ZM262.317 30.018C262.317 30.778 262.266 31.462 262.165 32.07H246.775C246.902 33.59 247.434 34.7807 248.371 35.642C249.308 36.5033 250.461 36.934 251.829 36.934C253.805 36.934 255.211 36.0853 256.047 34.388H261.785C261.177 36.4147 260.012 38.0867 258.289 39.404C256.566 40.696 254.451 41.342 251.943 41.342C249.916 41.342 248.092 40.8987 246.471 40.012C244.875 39.1 243.621 37.8207 242.709 36.174C241.822 34.5273 241.379 32.6273 241.379 30.474C241.379 28.2953 241.822 26.3827 242.709 24.736C243.596 23.0893 244.837 21.8227 246.433 20.936C248.029 20.0493 249.866 19.606 251.943 19.606C253.944 19.606 255.73 20.0367 257.301 20.898C258.897 21.7593 260.126 22.988 260.987 24.584C261.874 26.1547 262.317 27.966 262.317 30.018ZM256.807 28.498C256.782 27.13 256.288 26.0407 255.325 25.23C254.362 24.394 253.184 23.976 251.791 23.976C250.474 23.976 249.359 24.3813 248.447 25.192C247.56 25.9773 247.016 27.0793 246.813 28.498H256.807ZM274.256 41.342C272.533 41.342 270.988 41.038 269.62 40.43C268.252 39.7967 267.163 38.948 266.352 37.884C265.567 36.82 265.136 35.642 265.06 34.35H270.418C270.519 35.1607 270.912 35.832 271.596 36.364C272.305 36.896 273.179 37.162 274.218 37.162C275.231 37.162 276.017 36.9593 276.574 36.554C277.157 36.1487 277.448 35.6293 277.448 34.996C277.448 34.312 277.093 33.8053 276.384 33.476C275.7 33.1213 274.598 32.7413 273.078 32.336C271.507 31.956 270.215 31.5633 269.202 31.158C268.214 30.7527 267.353 30.132 266.618 29.296C265.909 28.46 265.554 27.3327 265.554 25.914C265.554 24.7487 265.883 23.6847 266.542 22.722C267.226 21.7593 268.189 20.9993 269.43 20.442C270.697 19.8847 272.179 19.606 273.876 19.606C276.384 19.606 278.385 20.2393 279.88 21.506C281.375 22.7473 282.198 24.432 282.35 26.56H277.258C277.182 25.724 276.827 25.0653 276.194 24.584C275.586 24.0773 274.763 23.824 273.724 23.824C272.761 23.824 272.014 24.0013 271.482 24.356C270.975 24.7107 270.722 25.2047 270.722 25.838C270.722 26.5473 271.077 27.092 271.786 27.472C272.495 27.8267 273.597 28.194 275.092 28.574C276.612 28.954 277.866 29.3467 278.854 29.752C279.842 30.1573 280.691 30.7907 281.4 31.652C282.135 32.488 282.515 33.6027 282.54 34.996C282.54 36.212 282.198 37.3013 281.514 38.264C280.855 39.2267 279.893 39.9867 278.626 40.544C277.385 41.076 275.928 41.342 274.256 41.342ZM293.101 24.318V34.502C293.101 35.2113 293.266 35.7307 293.595 36.06C293.95 36.364 294.532 36.516 295.343 36.516H297.813V41H294.469C289.985 41 287.743 38.8213 287.743 34.464V24.318H285.235V19.948H287.743V14.742H293.101V19.948H297.813V24.318H293.101ZM304.338 17.44C303.4 17.44 302.615 17.1487 301.982 16.566C301.374 15.958 301.07 15.2107 301.07 14.324C301.07 13.4373 301.374 12.7027 301.982 12.12C302.615 11.512 303.4 11.208 304.338 11.208C305.275 11.208 306.048 11.512 306.656 12.12C307.289 12.7027 307.606 13.4373 307.606 14.324C307.606 15.2107 307.289 15.958 306.656 16.566C306.048 17.1487 305.275 17.44 304.338 17.44ZM306.96 19.948V41H301.64V19.948H306.96ZM321.564 41.342C319.537 41.342 317.713 40.8987 316.092 40.012C314.47 39.1 313.191 37.8207 312.254 36.174C311.342 34.5273 310.886 32.6273 310.886 30.474C310.886 28.3207 311.354 26.4207 312.292 24.774C313.254 23.1273 314.559 21.8607 316.206 20.974C317.852 20.062 319.689 19.606 321.716 19.606C323.742 19.606 325.579 20.062 327.226 20.974C328.872 21.8607 330.164 23.1273 331.102 24.774C332.064 26.4207 332.546 28.3207 332.546 30.474C332.546 32.6273 332.052 34.5273 331.064 36.174C330.101 37.8207 328.784 39.1 327.112 40.012C325.465 40.8987 323.616 41.342 321.564 41.342ZM321.564 36.706C322.526 36.706 323.426 36.478 324.262 36.022C325.123 35.5407 325.807 34.8313 326.314 33.894C326.82 32.9567 327.074 31.8167 327.074 30.474C327.074 28.4727 326.542 26.94 325.478 25.876C324.439 24.7867 323.16 24.242 321.64 24.242C320.12 24.242 318.84 24.7867 317.802 25.876C316.788 26.94 316.282 28.4727 316.282 30.474C316.282 32.4753 316.776 34.0207 317.764 35.11C318.777 36.174 320.044 36.706 321.564 36.706ZM348.114 19.644C350.622 19.644 352.649 20.442 354.194 22.038C355.74 23.6087 356.512 25.8127 356.512 28.65V41H351.192V29.372C351.192 27.7 350.774 26.4207 349.938 25.534C349.102 24.622 347.962 24.166 346.518 24.166C345.049 24.166 343.884 24.622 343.022 25.534C342.186 26.4207 341.768 27.7 341.768 29.372V41H336.448V19.948H341.768V22.57C342.478 21.658 343.377 20.9487 344.466 20.442C345.581 19.91 346.797 19.644 348.114 19.644ZM369.627 41.342C367.905 41.342 366.359 41.038 364.991 40.43C363.623 39.7967 362.534 38.948 361.723 37.884C360.938 36.82 360.507 35.642 360.431 34.35H365.789C365.891 35.1607 366.283 35.832 366.967 36.364C367.677 36.896 368.551 37.162 369.589 37.162C370.603 37.162 371.388 36.9593 371.945 36.554C372.528 36.1487 372.819 35.6293 372.819 34.996C372.819 34.312 372.465 33.8053 371.755 33.476C371.071 33.1213 369.969 32.7413 368.449 32.336C366.879 31.956 365.587 31.5633 364.573 31.158C363.585 30.7527 362.724 30.132 361.989 29.296C361.28 28.46 360.925 27.3327 360.925 25.914C360.925 24.7487 361.255 23.6847 361.913 22.722C362.597 21.7593 363.56 20.9993 364.801 20.442C366.068 19.8847 367.55 19.606 369.247 19.606C371.755 19.606 373.757 20.2393 375.251 21.506C376.746 22.7473 377.569 24.432 377.721 26.56H372.629C372.553 25.724 372.199 25.0653 371.565 24.584C370.957 24.0773 370.134 23.824 369.095 23.824C368.133 23.824 367.385 24.0013 366.853 24.356C366.347 24.7107 366.093 25.2047 366.093 25.838C366.093 26.5473 366.448 27.092 367.157 27.472C367.867 27.8267 368.969 28.194 370.463 28.574C371.983 28.954 373.237 29.3467 374.225 29.752C375.213 30.1573 376.062 30.7907 376.771 31.652C377.506 32.488 377.886 33.6027 377.911 34.996C377.911 36.212 377.569 37.3013 376.885 38.264C376.227 39.2267 375.264 39.9867 373.997 40.544C372.756 41.076 371.299 41.342 369.627 41.342ZM400.681 41.342C398.654 41.342 396.83 40.8987 395.209 40.012C393.588 39.1 392.308 37.8207 391.371 36.174C390.459 34.5273 390.003 32.6273 390.003 30.474C390.003 28.3207 390.472 26.4207 391.409 24.774C392.372 23.1273 393.676 21.8607 395.323 20.974C396.97 20.062 398.806 19.606 400.833 19.606C402.86 19.606 404.696 20.062 406.343 20.974C407.99 21.8607 409.282 23.1273 410.219 24.774C411.182 26.4207 411.663 28.3207 411.663 30.474C411.663 32.6273 411.169 34.5273 410.181 36.174C409.218 37.8207 407.901 39.1 406.229 40.012C404.582 40.8987 402.733 41.342 400.681 41.342ZM400.681 36.706C401.644 36.706 402.543 36.478 403.379 36.022C404.24 35.5407 404.924 34.8313 405.431 33.894C405.938 32.9567 406.191 31.8167 406.191 30.474C406.191 28.4727 405.659 26.94 404.595 25.876C403.556 24.7867 402.277 24.242 400.757 24.242C399.237 24.242 397.958 24.7867 396.919 25.876C395.906 26.94 395.399 28.4727 395.399 30.474C395.399 32.4753 395.893 34.0207 396.881 35.11C397.894 36.174 399.161 36.706 400.681 36.706ZM420.885 23.216C421.569 22.1013 422.456 21.2273 423.545 20.594C424.66 19.9607 425.927 19.644 427.345 19.644V25.23H425.939C424.267 25.23 423.001 25.6227 422.139 26.408C421.303 27.1933 420.885 28.5613 420.885 30.512V41H415.565V19.948H420.885V23.216ZM95.288 75.644C97.796 75.644 99.8227 76.442 101.368 78.038C102.913 79.6087 103.686 81.8127 103.686 84.65V97H98.366V85.372C98.366 83.7 97.948 82.4207 97.112 81.534C96.276 80.622 95.136 80.166 93.692 80.166C92.2227 80.166 91.0573 80.622 90.196 81.534C89.36 82.4207 88.942 83.7 88.942 85.372V97H83.622V75.948H88.942V78.57C89.6513 77.658 90.5507 76.9487 91.64 76.442C92.7547 75.91 93.9707 75.644 95.288 75.644ZM128.315 86.018C128.315 86.778 128.264 87.462 128.163 88.07H112.773C112.9 89.59 113.432 90.7807 114.369 91.642C115.306 92.5033 116.459 92.934 117.827 92.934C119.803 92.934 121.209 92.0853 122.045 90.388H127.783C127.175 92.4147 126.01 94.0867 124.287 95.404C122.564 96.696 120.449 97.342 117.941 97.342C115.914 97.342 114.09 96.8987 112.469 96.012C110.873 95.1 109.619 93.8207 108.707 92.174C107.82 90.5273 107.377 88.6273 107.377 86.474C107.377 84.2953 107.82 82.3827 108.707 80.736C109.594 79.0893 110.835 77.8227 112.431 76.936C114.027 76.0493 115.864 75.606 117.941 75.606C119.942 75.606 121.728 76.0367 123.299 76.898C124.895 77.7593 126.124 78.988 126.985 80.584C127.872 82.1547 128.315 83.966 128.315 86.018ZM122.805 84.498C122.78 83.13 122.286 82.0407 121.323 81.23C120.36 80.394 119.182 79.976 117.789 79.976C116.472 79.976 115.357 80.3813 114.445 81.192C113.558 81.9773 113.014 83.0793 112.811 84.498H122.805ZM151.768 86.018C151.768 86.778 151.718 87.462 151.616 88.07H136.226C136.353 89.59 136.885 90.7807 137.822 91.642C138.76 92.5033 139.912 92.934 141.28 92.934C143.256 92.934 144.662 92.0853 145.498 90.388H151.236C150.628 92.4147 149.463 94.0867 147.74 95.404C146.018 96.696 143.902 97.342 141.394 97.342C139.368 97.342 137.544 96.8987 135.922 96.012C134.326 95.1 133.072 93.8207 132.16 92.174C131.274 90.5273 130.83 88.6273 130.83 86.474C130.83 84.2953 131.274 82.3827 132.16 80.736C133.047 79.0893 134.288 77.8227 135.884 76.936C137.48 76.0493 139.317 75.606 141.394 75.606C143.396 75.606 145.182 76.0367 146.752 76.898C148.348 77.7593 149.577 78.988 150.438 80.584C151.325 82.1547 151.768 83.966 151.768 86.018ZM146.258 84.498C146.233 83.13 145.739 82.0407 144.776 81.23C143.814 80.394 142.636 79.976 141.242 79.976C139.925 79.976 138.81 80.3813 137.898 81.192C137.012 81.9773 136.467 83.0793 136.264 84.498H146.258ZM154.283 86.398C154.283 84.27 154.701 82.3827 155.537 80.736C156.399 79.0893 157.564 77.8227 159.033 76.936C160.503 76.0493 162.137 75.606 163.935 75.606C165.303 75.606 166.608 75.91 167.849 76.518C169.091 77.1007 170.079 77.886 170.813 78.874V68.88H176.209V97H170.813V93.884C170.155 94.9227 169.23 95.7587 168.039 96.392C166.849 97.0253 165.468 97.342 163.897 97.342C162.124 97.342 160.503 96.886 159.033 95.974C157.564 95.062 156.399 93.7827 155.537 92.136C154.701 90.464 154.283 88.5513 154.283 86.398ZM170.851 86.474C170.851 85.182 170.598 84.08 170.091 83.168C169.585 82.2307 168.901 81.5213 168.039 81.04C167.178 80.5333 166.253 80.28 165.265 80.28C164.277 80.28 163.365 80.5207 162.529 81.002C161.693 81.4833 161.009 82.1927 160.477 83.13C159.971 84.042 159.717 85.1313 159.717 86.398C159.717 87.6647 159.971 88.7793 160.477 89.742C161.009 90.6793 161.693 91.4013 162.529 91.908C163.391 92.4147 164.303 92.668 165.265 92.668C166.253 92.668 167.178 92.4273 168.039 91.946C168.901 91.4393 169.585 90.73 170.091 89.818C170.598 88.8807 170.851 87.766 170.851 86.474ZM189.092 86.398C189.092 84.27 189.51 82.3827 190.346 80.736C191.207 79.0893 192.36 77.8227 193.804 76.936C195.273 76.0493 196.907 75.606 198.706 75.606C200.277 75.606 201.645 75.9227 202.81 76.556C204.001 77.1893 204.951 77.9873 205.66 78.95V75.948H211.018V97H205.66V93.922C204.976 94.91 204.026 95.7333 202.81 96.392C201.619 97.0253 200.239 97.342 198.668 97.342C196.895 97.342 195.273 96.886 193.804 95.974C192.36 95.062 191.207 93.7827 190.346 92.136C189.51 90.464 189.092 88.5513 189.092 86.398ZM205.66 86.474C205.66 85.182 205.407 84.08 204.9 83.168C204.393 82.2307 203.709 81.5213 202.848 81.04C201.987 80.5333 201.062 80.28 200.074 80.28C199.086 80.28 198.174 80.5207 197.338 81.002C196.502 81.4833 195.818 82.1927 195.286 83.13C194.779 84.042 194.526 85.1313 194.526 86.398C194.526 87.6647 194.779 88.7793 195.286 89.742C195.818 90.6793 196.502 91.4013 197.338 91.908C198.199 92.4147 199.111 92.668 200.074 92.668C201.062 92.668 201.987 92.4273 202.848 91.946C203.709 91.4393 204.393 90.73 204.9 89.818C205.407 88.8807 205.66 87.766 205.66 86.474ZM224.27 97.342C222.547 97.342 221.002 97.038 219.634 96.43C218.266 95.7967 217.176 94.948 216.366 93.884C215.58 92.82 215.15 91.642 215.074 90.35H220.432C220.533 91.1607 220.926 91.832 221.61 92.364C222.319 92.896 223.193 93.162 224.232 93.162C225.245 93.162 226.03 92.9593 226.588 92.554C227.17 92.1487 227.462 91.6293 227.462 90.996C227.462 90.312 227.107 89.8053 226.398 89.476C225.714 89.1213 224.612 88.7413 223.092 88.336C221.521 87.956 220.229 87.5633 219.216 87.158C218.228 86.7527 217.366 86.132 216.632 85.296C215.922 84.46 215.568 83.3327 215.568 81.914C215.568 80.7487 215.897 79.6847 216.556 78.722C217.24 77.7593 218.202 76.9993 219.444 76.442C220.71 75.8847 222.192 75.606 223.89 75.606C226.398 75.606 228.399 76.2393 229.894 77.506C231.388 78.7473 232.212 80.432 232.364 82.56H227.272C227.196 81.724 226.841 81.0653 226.208 80.584C225.6 80.0773 224.776 79.824 223.738 79.824C222.775 79.824 222.028 80.0013 221.496 80.356C220.989 80.7107 220.736 81.2047 220.736 81.838C220.736 82.5473 221.09 83.092 221.8 83.472C222.509 83.8267 223.611 84.194 225.106 84.574C226.626 84.954 227.88 85.3467 228.868 85.752C229.856 86.1573 230.704 86.7907 231.414 87.652C232.148 88.488 232.528 89.6027 232.554 90.996C232.554 92.212 232.212 93.3013 231.528 94.264C230.869 95.2267 229.906 95.9867 228.64 96.544C227.398 97.076 225.942 97.342 224.27 97.342ZM244.977 97.342C243.254 97.342 241.709 97.038 240.341 96.43C238.973 95.7967 237.883 94.948 237.073 93.884C236.287 92.82 235.857 91.642 235.781 90.35H241.139C241.24 91.1607 241.633 91.832 242.317 92.364C243.026 92.896 243.9 93.162 244.939 93.162C245.952 93.162 246.737 92.9593 247.295 92.554C247.877 92.1487 248.169 91.6293 248.169 90.996C248.169 90.312 247.814 89.8053 247.105 89.476C246.421 89.1213 245.319 88.7413 243.799 88.336C242.228 87.956 240.936 87.5633 239.923 87.158C238.935 86.7527 238.073 86.132 237.339 85.296C236.629 84.46 236.275 83.3327 236.275 81.914C236.275 80.7487 236.604 79.6847 237.263 78.722C237.947 77.7593 238.909 76.9993 240.151 76.442C241.417 75.8847 242.899 75.606 244.597 75.606C247.105 75.606 249.106 76.2393 250.601 77.506C252.095 78.7473 252.919 80.432 253.071 82.56H247.979C247.903 81.724 247.548 81.0653 246.915 80.584C246.307 80.0773 245.483 79.824 244.445 79.824C243.482 79.824 242.735 80.0013 242.203 80.356C241.696 80.7107 241.443 81.2047 241.443 81.838C241.443 82.5473 241.797 83.092 242.507 83.472C243.216 83.8267 244.318 84.194 245.813 84.574C247.333 84.954 248.587 85.3467 249.575 85.752C250.563 86.1573 251.411 86.7907 252.121 87.652C252.855 88.488 253.235 89.6027 253.261 90.996C253.261 92.212 252.919 93.3013 252.235 94.264C251.576 95.2267 250.613 95.9867 249.347 96.544C248.105 97.076 246.649 97.342 244.977 97.342ZM260.326 73.44C259.389 73.44 258.603 73.1487 257.97 72.566C257.362 71.958 257.058 71.2107 257.058 70.324C257.058 69.4373 257.362 68.7027 257.97 68.12C258.603 67.512 259.389 67.208 260.326 67.208C261.263 67.208 262.036 67.512 262.644 68.12C263.277 68.7027 263.594 69.4373 263.594 70.324C263.594 71.2107 263.277 71.958 262.644 72.566C262.036 73.1487 261.263 73.44 260.326 73.44ZM262.948 75.948V97H257.628V75.948H262.948ZM276.26 97.342C274.537 97.342 272.992 97.038 271.624 96.43C270.256 95.7967 269.167 94.948 268.356 93.884C267.571 92.82 267.14 91.642 267.064 90.35H272.422C272.523 91.1607 272.916 91.832 273.6 92.364C274.309 92.896 275.183 93.162 276.222 93.162C277.235 93.162 278.021 92.9593 278.578 92.554C279.161 92.1487 279.452 91.6293 279.452 90.996C279.452 90.312 279.097 89.8053 278.388 89.476C277.704 89.1213 276.602 88.7413 275.082 88.336C273.511 87.956 272.219 87.5633 271.206 87.158C270.218 86.7527 269.357 86.132 268.622 85.296C267.913 84.46 267.558 83.3327 267.558 81.914C267.558 80.7487 267.887 79.6847 268.546 78.722C269.23 77.7593 270.193 76.9993 271.434 76.442C272.701 75.8847 274.183 75.606 275.88 75.606C278.388 75.606 280.389 76.2393 281.884 77.506C283.379 78.7473 284.202 80.432 284.354 82.56H279.262C279.186 81.724 278.831 81.0653 278.198 80.584C277.59 80.0773 276.767 79.824 275.728 79.824C274.765 79.824 274.018 80.0013 273.486 80.356C272.979 80.7107 272.726 81.2047 272.726 81.838C272.726 82.5473 273.081 83.092 273.79 83.472C274.499 83.8267 275.601 84.194 277.096 84.574C278.616 84.954 279.87 85.3467 280.858 85.752C281.846 86.1573 282.695 86.7907 283.404 87.652C284.139 88.488 284.519 89.6027 284.544 90.996C284.544 92.212 284.202 93.3013 283.518 94.264C282.859 95.2267 281.897 95.9867 280.63 96.544C279.389 97.076 277.932 97.342 276.26 97.342ZM295.105 80.318V90.502C295.105 91.2113 295.27 91.7307 295.599 92.06C295.954 92.364 296.536 92.516 297.347 92.516H299.817V97H296.473C291.989 97 289.747 94.8213 289.747 90.464V80.318H287.239V75.948H289.747V70.742H295.105V75.948H299.817V80.318H295.105ZM302.275 86.398C302.275 84.27 302.693 82.3827 303.529 80.736C304.391 79.0893 305.543 77.8227 306.987 76.936C308.457 76.0493 310.091 75.606 311.889 75.606C313.46 75.606 314.828 75.9227 315.993 76.556C317.184 77.1893 318.134 77.9873 318.843 78.95V75.948H324.201V97H318.843V93.922C318.159 94.91 317.209 95.7333 315.993 96.392C314.803 97.0253 313.422 97.342 311.851 97.342C310.078 97.342 308.457 96.886 306.987 95.974C305.543 95.062 304.391 93.7827 303.529 92.136C302.693 90.464 302.275 88.5513 302.275 86.398ZM318.843 86.474C318.843 85.182 318.59 84.08 318.083 83.168C317.577 82.2307 316.893 81.5213 316.031 81.04C315.17 80.5333 314.245 80.28 313.257 80.28C312.269 80.28 311.357 80.5207 310.521 81.002C309.685 81.4833 309.001 82.1927 308.469 83.13C307.963 84.042 307.709 85.1313 307.709 86.398C307.709 87.6647 307.963 88.7793 308.469 89.742C309.001 90.6793 309.685 91.4013 310.521 91.908C311.383 92.4147 312.295 92.668 313.257 92.668C314.245 92.668 315.17 92.4273 316.031 91.946C316.893 91.4393 317.577 90.73 318.083 89.818C318.59 88.8807 318.843 87.766 318.843 86.474ZM341.063 75.644C343.571 75.644 345.598 76.442 347.143 78.038C348.689 79.6087 349.461 81.8127 349.461 84.65V97H344.141V85.372C344.141 83.7 343.723 82.4207 342.887 81.534C342.051 80.622 340.911 80.166 339.467 80.166C337.998 80.166 336.833 80.622 335.971 81.534C335.135 82.4207 334.717 83.7 334.717 85.372V97H329.397V75.948H334.717V78.57C335.427 77.658 336.326 76.9487 337.415 76.442C338.53 75.91 339.746 75.644 341.063 75.644ZM353.152 86.474C353.152 84.2953 353.596 82.3953 354.482 80.774C355.369 79.1273 356.598 77.8607 358.168 76.974C359.739 76.062 361.538 75.606 363.564 75.606C366.174 75.606 368.327 76.2647 370.024 77.582C371.747 78.874 372.9 80.698 373.482 83.054H367.744C367.44 82.142 366.921 81.4327 366.186 80.926C365.477 80.394 364.59 80.128 363.526 80.128C362.006 80.128 360.803 80.6853 359.916 81.8C359.03 82.8893 358.586 84.4473 358.586 86.474C358.586 88.4753 359.03 90.0333 359.916 91.148C360.803 92.2373 362.006 92.782 363.526 92.782C365.68 92.782 367.086 91.8193 367.744 89.894H373.482C372.9 92.174 371.747 93.9853 370.024 95.328C368.302 96.6707 366.148 97.342 363.564 97.342C361.538 97.342 359.739 96.8987 358.168 96.012C356.598 95.1 355.369 93.8333 354.482 92.212C353.596 90.5653 353.152 88.6527 353.152 86.474ZM396.95 86.018C396.95 86.778 396.899 87.462 396.798 88.07H381.408C381.534 89.59 382.066 90.7807 383.004 91.642C383.941 92.5033 385.094 92.934 386.462 92.934C388.438 92.934 389.844 92.0853 390.68 90.388H396.418C395.81 92.4147 394.644 94.0867 392.922 95.404C391.199 96.696 389.084 97.342 386.576 97.342C384.549 97.342 382.725 96.8987 381.104 96.012C379.508 95.1 378.254 93.8207 377.342 92.174C376.455 90.5273 376.012 88.6273 376.012 86.474C376.012 84.2953 376.455 82.3827 377.342 80.736C378.228 79.0893 379.47 77.8227 381.066 76.936C382.662 76.0493 384.498 75.606 386.576 75.606C388.577 75.606 390.363 76.0367 391.934 76.898C393.53 77.7593 394.758 78.988 395.62 80.584C396.506 82.1547 396.95 83.966 396.95 86.018ZM391.44 84.498C391.414 83.13 390.92 82.0407 389.958 81.23C388.995 80.394 387.817 79.976 386.424 79.976C385.106 79.976 383.992 80.3813 383.08 81.192C382.193 81.9773 381.648 83.0793 381.446 84.498H391.44ZM408.243 69.564C410.878 69.564 412.993 70.286 414.589 71.73C416.21 73.1487 417.021 75.112 417.021 77.62C417.021 80.1027 416.223 82.0027 414.627 83.32C413.031 84.612 410.916 85.258 408.281 85.258L408.129 88.184H403.455L403.265 81.724H404.975C407.179 81.724 408.876 81.4327 410.067 80.85C411.258 80.2673 411.853 79.2033 411.853 77.658C411.853 76.5433 411.524 75.6567 410.865 74.998C410.232 74.3393 409.358 74.01 408.243 74.01C407.078 74.01 406.166 74.3267 405.507 74.96C404.874 75.5933 404.557 76.4673 404.557 77.582H399.541C399.516 76.0367 399.845 74.656 400.529 73.44C401.213 72.224 402.214 71.274 403.531 70.59C404.874 69.906 406.444 69.564 408.243 69.564ZM405.773 97.266C404.81 97.266 404.012 96.9747 403.379 96.392C402.771 95.784 402.467 95.0367 402.467 94.15C402.467 93.2633 402.771 92.5287 403.379 91.946C404.012 91.338 404.81 91.034 405.773 91.034C406.71 91.034 407.483 91.338 408.091 91.946C408.699 92.5287 409.003 93.2633 409.003 94.15C409.003 95.0367 408.699 95.784 408.091 96.392C407.483 96.9747 406.71 97.266 405.773 97.266Z" fill="#383A68"/>
<rect y="146" width="530" height="244" fill="#1C1E53"/>
<path opacity="0.8" d="M101.248 243.848L98.016 255H96.384L93.792 246.024L91.104 255L89.488 255.016L86.368 243.848H87.92L90.352 253.304L93.04 243.848H94.672L97.232 253.272L99.68 243.848H101.248ZM110.841 250.28C110.841 250.557 110.825 250.851 110.793 251.16H103.785C103.839 252.024 104.132 252.701 104.665 253.192C105.209 253.672 105.865 253.912 106.633 253.912C107.263 253.912 107.785 253.768 108.201 253.48C108.628 253.181 108.927 252.787 109.097 252.296H110.665C110.431 253.139 109.961 253.827 109.257 254.36C108.553 254.883 107.679 255.144 106.633 255.144C105.801 255.144 105.055 254.957 104.393 254.584C103.743 254.211 103.231 253.683 102.857 253C102.484 252.307 102.297 251.507 102.297 250.6C102.297 249.693 102.479 248.899 102.841 248.216C103.204 247.533 103.711 247.011 104.361 246.648C105.023 246.275 105.78 246.088 106.633 246.088C107.465 246.088 108.201 246.269 108.841 246.632C109.481 246.995 109.972 247.496 110.313 248.136C110.665 248.765 110.841 249.48 110.841 250.28ZM109.337 249.976C109.337 249.421 109.215 248.947 108.969 248.552C108.724 248.147 108.388 247.843 107.961 247.64C107.545 247.427 107.081 247.32 106.569 247.32C105.833 247.32 105.204 247.555 104.681 248.024C104.169 248.493 103.876 249.144 103.801 249.976H109.337ZM116.485 250.584C116.485 249.688 116.666 248.904 117.029 248.232C117.392 247.549 117.888 247.021 118.517 246.648C119.157 246.275 119.866 246.088 120.645 246.088C121.413 246.088 122.08 246.253 122.645 246.584C123.21 246.915 123.632 247.331 123.909 247.832V246.232H125.381V255H123.909V253.368C123.621 253.88 123.189 254.307 122.613 254.648C122.048 254.979 121.386 255.144 120.629 255.144C119.85 255.144 119.146 254.952 118.517 254.568C117.888 254.184 117.392 253.645 117.029 252.952C116.666 252.259 116.485 251.469 116.485 250.584ZM123.909 250.6C123.909 249.939 123.776 249.363 123.509 248.872C123.242 248.381 122.88 248.008 122.421 247.752C121.973 247.485 121.477 247.352 120.933 247.352C120.389 247.352 119.893 247.48 119.445 247.736C118.997 247.992 118.64 248.365 118.373 248.856C118.106 249.347 117.973 249.923 117.973 250.584C117.973 251.256 118.106 251.843 118.373 252.344C118.64 252.835 118.997 253.213 119.445 253.48C119.893 253.736 120.389 253.864 120.933 253.864C121.477 253.864 121.973 253.736 122.421 253.48C122.88 253.213 123.242 252.835 123.509 252.344C123.776 251.843 123.909 251.261 123.909 250.6ZM129.297 247.656C129.553 247.155 129.916 246.765 130.385 246.488C130.865 246.211 131.447 246.072 132.129 246.072V247.576H131.745C130.113 247.576 129.297 248.461 129.297 250.232V255H127.841V246.232H129.297V247.656ZM141.81 250.28C141.81 250.557 141.794 250.851 141.762 251.16H134.754C134.807 252.024 135.101 252.701 135.634 253.192C136.178 253.672 136.834 253.912 137.602 253.912C138.231 253.912 138.754 253.768 139.17 253.48C139.597 253.181 139.895 252.787 140.066 252.296H141.634C141.399 253.139 140.93 253.827 140.226 254.36C139.522 254.883 138.647 255.144 137.602 255.144C136.77 255.144 136.023 254.957 135.362 254.584C134.711 254.211 134.199 253.683 133.826 253C133.453 252.307 133.266 251.507 133.266 250.6C133.266 249.693 133.447 248.899 133.81 248.216C134.173 247.533 134.679 247.011 135.33 246.648C135.991 246.275 136.749 246.088 137.602 246.088C138.434 246.088 139.17 246.269 139.81 246.632C140.45 246.995 140.941 247.496 141.282 248.136C141.634 248.765 141.81 249.48 141.81 250.28ZM140.306 249.976C140.306 249.421 140.183 248.947 139.938 248.552C139.693 248.147 139.357 247.843 138.93 247.64C138.514 247.427 138.05 247.32 137.538 247.32C136.802 247.32 136.173 247.555 135.65 248.024C135.138 248.493 134.845 249.144 134.77 249.976H140.306ZM147.454 250.584C147.454 249.688 147.635 248.904 147.998 248.232C148.36 247.549 148.856 247.021 149.486 246.648C150.126 246.275 150.835 246.088 151.614 246.088C152.382 246.088 153.048 246.253 153.614 246.584C154.179 246.915 154.6 247.331 154.878 247.832V246.232H156.35V255H154.878V253.368C154.59 253.88 154.158 254.307 153.582 254.648C153.016 254.979 152.355 255.144 151.598 255.144C150.819 255.144 150.115 254.952 149.486 254.568C148.856 254.184 148.36 253.645 147.998 252.952C147.635 252.259 147.454 251.469 147.454 250.584ZM154.878 250.6C154.878 249.939 154.744 249.363 154.478 248.872C154.211 248.381 153.848 248.008 153.39 247.752C152.942 247.485 152.446 247.352 151.902 247.352C151.358 247.352 150.862 247.48 150.414 247.736C149.966 247.992 149.608 248.365 149.342 248.856C149.075 249.347 148.942 249.923 148.942 250.584C148.942 251.256 149.075 251.843 149.342 252.344C149.608 252.835 149.966 253.213 150.414 253.48C150.862 253.736 151.358 253.864 151.902 253.864C152.446 253.864 152.942 253.736 153.39 253.48C153.848 253.213 154.211 252.835 154.478 252.344C154.744 251.843 154.878 251.261 154.878 250.6ZM160.266 243.16V255H158.81V243.16H160.266ZM174.428 246.232L171.692 255H170.188L168.076 248.04L165.964 255H164.46L161.708 246.232H163.196L165.212 253.592L167.388 246.232H168.876L171.004 253.608L172.988 246.232H174.428ZM175.329 250.584C175.329 249.688 175.51 248.904 175.873 248.232C176.235 247.549 176.731 247.021 177.361 246.648C178.001 246.275 178.71 246.088 179.489 246.088C180.257 246.088 180.923 246.253 181.489 246.584C182.054 246.915 182.475 247.331 182.753 247.832V246.232H184.225V255H182.753V253.368C182.465 253.88 182.033 254.307 181.457 254.648C180.891 254.979 180.23 255.144 179.473 255.144C178.694 255.144 177.99 254.952 177.361 254.568C176.731 254.184 176.235 253.645 175.873 252.952C175.51 252.259 175.329 251.469 175.329 250.584ZM182.753 250.6C182.753 249.939 182.619 249.363 182.353 248.872C182.086 248.381 181.723 248.008 181.265 247.752C180.817 247.485 180.321 247.352 179.777 247.352C179.233 247.352 178.737 247.48 178.289 247.736C177.841 247.992 177.483 248.365 177.217 248.856C176.95 249.347 176.817 249.923 176.817 250.584C176.817 251.256 176.95 251.843 177.217 252.344C177.483 252.835 177.841 253.213 178.289 253.48C178.737 253.736 179.233 253.864 179.777 253.864C180.321 253.864 180.817 253.736 181.265 253.48C181.723 253.213 182.086 252.835 182.353 252.344C182.619 251.843 182.753 251.261 182.753 250.6ZM194.237 246.232L188.957 259.128H187.453L189.181 254.904L185.645 246.232H187.261L190.013 253.336L192.733 246.232H194.237ZM198.805 255.144C198.133 255.144 197.53 255.032 196.997 254.808C196.463 254.573 196.042 254.253 195.733 253.848C195.423 253.432 195.253 252.957 195.221 252.424H196.725C196.767 252.861 196.97 253.219 197.333 253.496C197.706 253.773 198.191 253.912 198.789 253.912C199.343 253.912 199.781 253.789 200.101 253.544C200.421 253.299 200.581 252.989 200.581 252.616C200.581 252.232 200.41 251.949 200.069 251.768C199.727 251.576 199.199 251.389 198.485 251.208C197.834 251.037 197.301 250.867 196.885 250.696C196.479 250.515 196.127 250.253 195.829 249.912C195.541 249.56 195.397 249.101 195.397 248.536C195.397 248.088 195.53 247.677 195.797 247.304C196.063 246.931 196.442 246.637 196.933 246.424C197.423 246.2 197.983 246.088 198.613 246.088C199.583 246.088 200.367 246.333 200.965 246.824C201.562 247.315 201.882 247.987 201.925 248.84H200.469C200.437 248.381 200.25 248.013 199.909 247.736C199.578 247.459 199.13 247.32 198.565 247.32C198.042 247.32 197.626 247.432 197.317 247.656C197.007 247.88 196.853 248.173 196.853 248.536C196.853 248.824 196.943 249.064 197.125 249.256C197.317 249.437 197.551 249.587 197.829 249.704C198.117 249.811 198.511 249.933 199.013 250.072C199.642 250.243 200.154 250.413 200.549 250.584C200.943 250.744 201.279 250.989 201.557 251.32C201.845 251.651 201.994 252.083 202.005 252.616C202.005 253.096 201.871 253.528 201.605 253.912C201.338 254.296 200.959 254.6 200.469 254.824C199.989 255.037 199.434 255.144 198.805 255.144ZM212.15 255.144C211.328 255.144 210.582 254.957 209.91 254.584C209.248 254.211 208.726 253.683 208.342 253C207.968 252.307 207.782 251.507 207.782 250.6C207.782 249.704 207.974 248.915 208.358 248.232C208.752 247.539 209.286 247.011 209.958 246.648C210.63 246.275 211.382 246.088 212.214 246.088C213.046 246.088 213.798 246.275 214.47 246.648C215.142 247.011 215.67 247.533 216.054 248.216C216.448 248.899 216.646 249.693 216.646 250.6C216.646 251.507 216.443 252.307 216.038 253C215.643 253.683 215.104 254.211 214.422 254.584C213.739 254.957 212.982 255.144 212.15 255.144ZM212.15 253.864C212.672 253.864 213.163 253.741 213.622 253.496C214.08 253.251 214.448 252.883 214.726 252.392C215.014 251.901 215.158 251.304 215.158 250.6C215.158 249.896 215.019 249.299 214.742 248.808C214.464 248.317 214.102 247.955 213.654 247.72C213.206 247.475 212.72 247.352 212.198 247.352C211.664 247.352 211.174 247.475 210.726 247.72C210.288 247.955 209.936 248.317 209.67 248.808C209.403 249.299 209.27 249.896 209.27 250.6C209.27 251.315 209.398 251.917 209.654 252.408C209.92 252.899 210.272 253.267 210.71 253.512C211.147 253.747 211.627 253.864 212.15 253.864ZM220.016 247.848C220.304 247.347 220.731 246.931 221.296 246.6C221.872 246.259 222.539 246.088 223.296 246.088C224.075 246.088 224.779 246.275 225.408 246.648C226.048 247.021 226.549 247.549 226.912 248.232C227.275 248.904 227.456 249.688 227.456 250.584C227.456 251.469 227.275 252.259 226.912 252.952C226.549 253.645 226.048 254.184 225.408 254.568C224.779 254.952 224.075 255.144 223.296 255.144C222.549 255.144 221.888 254.979 221.312 254.648C220.747 254.307 220.315 253.885 220.016 253.384V259.16H218.56V246.232H220.016V247.848ZM225.968 250.584C225.968 249.923 225.835 249.347 225.568 248.856C225.301 248.365 224.939 247.992 224.48 247.736C224.032 247.48 223.536 247.352 222.992 247.352C222.459 247.352 221.963 247.485 221.504 247.752C221.056 248.008 220.693 248.387 220.416 248.888C220.149 249.379 220.016 249.949 220.016 250.6C220.016 251.261 220.149 251.843 220.416 252.344C220.693 252.835 221.056 253.213 221.504 253.48C221.963 253.736 222.459 253.864 222.992 253.864C223.536 253.864 224.032 253.736 224.48 253.48C224.939 253.213 225.301 252.835 225.568 252.344C225.835 251.843 225.968 251.256 225.968 250.584ZM237.373 250.28C237.373 250.557 237.357 250.851 237.325 251.16H230.317C230.37 252.024 230.663 252.701 231.197 253.192C231.741 253.672 232.397 253.912 233.165 253.912C233.794 253.912 234.317 253.768 234.733 253.48C235.159 253.181 235.458 252.787 235.629 252.296H237.197C236.962 253.139 236.493 253.827 235.789 254.36C235.085 254.883 234.21 255.144 233.165 255.144C232.333 255.144 231.586 254.957 230.925 254.584C230.274 254.211 229.762 253.683 229.389 253C229.015 252.307 228.829 251.507 228.829 250.6C228.829 249.693 229.01 248.899 229.373 248.216C229.735 247.533 230.242 247.011 230.893 246.648C231.554 246.275 232.311 246.088 233.165 246.088C233.997 246.088 234.733 246.269 235.373 246.632C236.013 246.995 236.503 247.496 236.845 248.136C237.197 248.765 237.373 249.48 237.373 250.28ZM235.869 249.976C235.869 249.421 235.746 248.947 235.501 248.552C235.255 248.147 234.919 247.843 234.493 247.64C234.077 247.427 233.613 247.32 233.101 247.32C232.365 247.32 231.735 247.555 231.213 248.024C230.701 248.493 230.407 249.144 230.333 249.976H235.869ZM243.567 246.072C244.633 246.072 245.497 246.397 246.159 247.048C246.82 247.688 247.151 248.616 247.151 249.832V255H245.711V250.04C245.711 249.165 245.492 248.499 245.055 248.04C244.617 247.571 244.02 247.336 243.263 247.336C242.495 247.336 241.881 247.576 241.423 248.056C240.975 248.536 240.751 249.235 240.751 250.152V255H239.295V246.232H240.751V247.48C241.039 247.032 241.428 246.685 241.919 246.44C242.42 246.195 242.969 246.072 243.567 246.072ZM255.571 247.432V252.6C255.571 253.027 255.661 253.331 255.843 253.512C256.024 253.683 256.339 253.768 256.786 253.768H257.859V255H256.547C255.736 255 255.128 254.813 254.723 254.44C254.317 254.067 254.115 253.453 254.115 252.6V247.432H252.979V246.232H254.115V244.024H255.571V246.232H257.859V247.432H255.571ZM263.447 255.144C262.625 255.144 261.879 254.957 261.207 254.584C260.545 254.211 260.023 253.683 259.639 253C259.265 252.307 259.079 251.507 259.079 250.6C259.079 249.704 259.271 248.915 259.655 248.232C260.049 247.539 260.583 247.011 261.255 246.648C261.927 246.275 262.679 246.088 263.511 246.088C264.343 246.088 265.095 246.275 265.767 246.648C266.439 247.011 266.967 247.533 267.351 248.216C267.745 248.899 267.943 249.693 267.943 250.6C267.943 251.507 267.74 252.307 267.335 253C266.94 253.683 266.401 254.211 265.719 254.584C265.036 254.957 264.279 255.144 263.447 255.144ZM263.447 253.864C263.969 253.864 264.46 253.741 264.919 253.496C265.377 253.251 265.745 252.883 266.023 252.392C266.311 251.901 266.455 251.304 266.455 250.6C266.455 249.896 266.316 249.299 266.039 248.808C265.761 248.317 265.399 247.955 264.951 247.72C264.503 247.475 264.017 247.352 263.495 247.352C262.961 247.352 262.471 247.475 262.023 247.72C261.585 247.955 261.233 248.317 260.967 248.808C260.7 249.299 260.567 249.896 260.567 250.6C260.567 251.315 260.695 251.917 260.951 252.408C261.217 252.899 261.569 253.267 262.007 253.512C262.444 253.747 262.924 253.864 263.447 253.864ZM273.579 250.584C273.579 249.688 273.76 248.904 274.123 248.232C274.485 247.549 274.981 247.021 275.611 246.648C276.251 246.275 276.965 246.088 277.755 246.088C278.437 246.088 279.072 246.248 279.659 246.568C280.245 246.877 280.693 247.288 281.003 247.8V243.16H282.475V255H281.003V253.352C280.715 253.875 280.288 254.307 279.723 254.648C279.157 254.979 278.496 255.144 277.739 255.144C276.96 255.144 276.251 254.952 275.611 254.568C274.981 254.184 274.485 253.645 274.123 252.952C273.76 252.259 273.579 251.469 273.579 250.584ZM281.003 250.6C281.003 249.939 280.869 249.363 280.603 248.872C280.336 248.381 279.973 248.008 279.515 247.752C279.067 247.485 278.571 247.352 278.027 247.352C277.483 247.352 276.987 247.48 276.539 247.736C276.091 247.992 275.733 248.365 275.467 248.856C275.2 249.347 275.067 249.923 275.067 250.584C275.067 251.256 275.2 251.843 275.467 252.344C275.733 252.835 276.091 253.213 276.539 253.48C276.987 253.736 277.483 253.864 278.027 253.864C278.571 253.864 279.067 253.736 279.515 253.48C279.973 253.213 280.336 252.835 280.603 252.344C280.869 251.843 281.003 251.261 281.003 250.6ZM285.687 244.808C285.41 244.808 285.175 244.712 284.983 244.52C284.791 244.328 284.695 244.093 284.695 243.816C284.695 243.539 284.791 243.304 284.983 243.112C285.175 242.92 285.41 242.824 285.687 242.824C285.954 242.824 286.178 242.92 286.359 243.112C286.551 243.304 286.647 243.539 286.647 243.816C286.647 244.093 286.551 244.328 286.359 244.52C286.178 244.712 285.954 244.808 285.687 244.808ZM286.391 246.232V255H284.935V246.232H286.391ZM291.977 255.144C291.305 255.144 290.702 255.032 290.169 254.808C289.635 254.573 289.214 254.253 288.905 253.848C288.595 253.432 288.425 252.957 288.393 252.424H289.897C289.939 252.861 290.142 253.219 290.505 253.496C290.878 253.773 291.363 253.912 291.961 253.912C292.515 253.912 292.953 253.789 293.273 253.544C293.593 253.299 293.753 252.989 293.753 252.616C293.753 252.232 293.582 251.949 293.241 251.768C292.899 251.576 292.371 251.389 291.657 251.208C291.006 251.037 290.473 250.867 290.057 250.696C289.651 250.515 289.299 250.253 289.001 249.912C288.713 249.56 288.569 249.101 288.569 248.536C288.569 248.088 288.702 247.677 288.969 247.304C289.235 246.931 289.614 246.637 290.105 246.424C290.595 246.2 291.155 246.088 291.785 246.088C292.755 246.088 293.539 246.333 294.137 246.824C294.734 247.315 295.054 247.987 295.097 248.84H293.641C293.609 248.381 293.422 248.013 293.081 247.736C292.75 247.459 292.302 247.32 291.737 247.32C291.214 247.32 290.798 247.432 290.489 247.656C290.179 247.88 290.025 248.173 290.025 248.536C290.025 248.824 290.115 249.064 290.297 249.256C290.489 249.437 290.723 249.587 291.001 249.704C291.289 249.811 291.683 249.933 292.185 250.072C292.814 250.243 293.326 250.413 293.721 250.584C294.115 250.744 294.451 250.989 294.729 251.32C295.017 251.651 295.166 252.083 295.177 252.616C295.177 253.096 295.043 253.528 294.777 253.912C294.51 254.296 294.131 254.6 293.641 254.824C293.161 255.037 292.606 255.144 291.977 255.144ZM296.688 250.6C296.688 249.693 296.869 248.904 297.232 248.232C297.595 247.549 298.096 247.021 298.736 246.648C299.387 246.275 300.128 246.088 300.96 246.088C302.037 246.088 302.923 246.349 303.616 246.872C304.32 247.395 304.784 248.12 305.008 249.048H303.44C303.291 248.515 302.997 248.093 302.56 247.784C302.133 247.475 301.6 247.32 300.96 247.32C300.128 247.32 299.456 247.608 298.944 248.184C298.432 248.749 298.176 249.555 298.176 250.6C298.176 251.656 298.432 252.472 298.944 253.048C299.456 253.624 300.128 253.912 300.96 253.912C301.6 253.912 302.133 253.763 302.56 253.464C302.987 253.165 303.28 252.739 303.44 252.184H305.008C304.773 253.08 304.304 253.8 303.6 254.344C302.896 254.877 302.016 255.144 300.96 255.144C300.128 255.144 299.387 254.957 298.736 254.584C298.096 254.211 297.595 253.683 297.232 253C296.869 252.317 296.688 251.517 296.688 250.6ZM314.727 246.232V255H313.271V253.704C312.993 254.152 312.604 254.504 312.103 254.76C311.612 255.005 311.068 255.128 310.471 255.128C309.788 255.128 309.175 254.989 308.631 254.712C308.087 254.424 307.655 253.997 307.335 253.432C307.025 252.867 306.871 252.179 306.871 251.368V246.232H308.311V251.176C308.311 252.04 308.529 252.707 308.967 253.176C309.404 253.635 310.001 253.864 310.759 253.864C311.537 253.864 312.151 253.624 312.599 253.144C313.047 252.664 313.271 251.965 313.271 251.048V246.232H314.727ZM320.289 255.144C319.617 255.144 319.014 255.032 318.481 254.808C317.948 254.573 317.526 254.253 317.217 253.848C316.908 253.432 316.737 252.957 316.705 252.424H318.209C318.252 252.861 318.454 253.219 318.817 253.496C319.19 253.773 319.676 253.912 320.273 253.912C320.828 253.912 321.265 253.789 321.585 253.544C321.905 253.299 322.065 252.989 322.065 252.616C322.065 252.232 321.894 251.949 321.553 251.768C321.212 251.576 320.684 251.389 319.969 251.208C319.318 251.037 318.785 250.867 318.369 250.696C317.964 250.515 317.612 250.253 317.313 249.912C317.025 249.56 316.881 249.101 316.881 248.536C316.881 248.088 317.014 247.677 317.281 247.304C317.548 246.931 317.926 246.637 318.417 246.424C318.908 246.2 319.468 246.088 320.097 246.088C321.068 246.088 321.852 246.333 322.449 246.824C323.046 247.315 323.366 247.987 323.409 248.84H321.953C321.921 248.381 321.734 248.013 321.393 247.736C321.062 247.459 320.614 247.32 320.049 247.32C319.526 247.32 319.11 247.432 318.801 247.656C318.492 247.88 318.337 248.173 318.337 248.536C318.337 248.824 318.428 249.064 318.609 249.256C318.801 249.437 319.036 249.587 319.313 249.704C319.601 249.811 319.996 249.933 320.497 250.072C321.126 250.243 321.638 250.413 322.033 250.584C322.428 250.744 322.764 250.989 323.041 251.32C323.329 251.651 323.478 252.083 323.489 252.616C323.489 253.096 323.356 253.528 323.089 253.912C322.822 254.296 322.444 254.6 321.953 254.824C321.473 255.037 320.918 255.144 320.289 255.144ZM328.649 255.144C327.977 255.144 327.374 255.032 326.841 254.808C326.307 254.573 325.886 254.253 325.577 253.848C325.267 253.432 325.097 252.957 325.065 252.424H326.569C326.611 252.861 326.814 253.219 327.177 253.496C327.55 253.773 328.035 253.912 328.633 253.912C329.187 253.912 329.625 253.789 329.945 253.544C330.265 253.299 330.425 252.989 330.425 252.616C330.425 252.232 330.254 251.949 329.913 251.768C329.571 251.576 329.043 251.389 328.329 251.208C327.678 251.037 327.145 250.867 326.729 250.696C326.323 250.515 325.971 250.253 325.673 249.912C325.385 249.56 325.241 249.101 325.241 248.536C325.241 248.088 325.374 247.677 325.641 247.304C325.907 246.931 326.286 246.637 326.777 246.424C327.267 246.2 327.827 246.088 328.457 246.088C329.427 246.088 330.211 246.333 330.809 246.824C331.406 247.315 331.726 247.987 331.769 248.84H330.313C330.281 248.381 330.094 248.013 329.753 247.736C329.422 247.459 328.974 247.32 328.409 247.32C327.886 247.32 327.47 247.432 327.161 247.656C326.851 247.88 326.697 248.173 326.697 248.536C326.697 248.824 326.787 249.064 326.969 249.256C327.161 249.437 327.395 249.587 327.673 249.704C327.961 249.811 328.355 249.933 328.857 250.072C329.486 250.243 329.998 250.413 330.393 250.584C330.787 250.744 331.123 250.989 331.401 251.32C331.689 251.651 331.838 252.083 331.849 252.616C331.849 253.096 331.715 253.528 331.449 253.912C331.182 254.296 330.803 254.6 330.313 254.824C329.833 255.037 329.278 255.144 328.649 255.144ZM345.722 246.232L340.442 259.128H338.938L340.666 254.904L337.13 246.232H338.746L341.498 253.336L344.218 246.232H345.722ZM351.009 255.144C350.188 255.144 349.441 254.957 348.769 254.584C348.108 254.211 347.585 253.683 347.201 253C346.828 252.307 346.641 251.507 346.641 250.6C346.641 249.704 346.833 248.915 347.217 248.232C347.612 247.539 348.145 247.011 348.817 246.648C349.489 246.275 350.241 246.088 351.073 246.088C351.905 246.088 352.657 246.275 353.329 246.648C354.001 247.011 354.529 247.533 354.913 248.216C355.308 248.899 355.505 249.693 355.505 250.6C355.505 251.507 355.302 252.307 354.897 253C354.502 253.683 353.964 254.211 353.281 254.584C352.598 254.957 351.841 255.144 351.009 255.144ZM351.009 253.864C351.532 253.864 352.022 253.741 352.481 253.496C352.94 253.251 353.308 252.883 353.585 252.392C353.873 251.901 354.017 251.304 354.017 250.6C354.017 249.896 353.878 249.299 353.601 248.808C353.324 248.317 352.961 247.955 352.513 247.72C352.065 247.475 351.58 247.352 351.057 247.352C350.524 247.352 350.033 247.475 349.585 247.72C349.148 247.955 348.796 248.317 348.529 248.808C348.262 249.299 348.129 249.896 348.129 250.6C348.129 251.315 348.257 251.917 348.513 252.408C348.78 252.899 349.132 253.267 349.569 253.512C350.006 253.747 350.486 253.864 351.009 253.864ZM365.196 246.232V255H363.74V253.704C363.462 254.152 363.073 254.504 362.572 254.76C362.081 255.005 361.537 255.128 360.94 255.128C360.257 255.128 359.644 254.989 359.1 254.712C358.556 254.424 358.124 253.997 357.804 253.432C357.494 252.867 357.34 252.179 357.34 251.368V246.232H358.78V251.176C358.78 252.04 358.998 252.707 359.436 253.176C359.873 253.635 360.47 253.864 361.228 253.864C362.006 253.864 362.62 253.624 363.068 253.144C363.516 252.664 363.74 251.965 363.74 251.048V246.232H365.196ZM369.11 247.656C369.366 247.155 369.729 246.765 370.198 246.488C370.678 246.211 371.259 246.072 371.942 246.072V247.576H371.558C369.926 247.576 369.11 248.461 369.11 250.232V255H367.654V246.232H369.11V247.656ZM88.688 269.656C88.944 269.155 89.3067 268.765 89.776 268.488C90.256 268.211 90.8373 268.072 91.52 268.072V269.576H91.136C89.504 269.576 88.688 270.461 88.688 272.232V277H87.232V268.232H88.688V269.656ZM101.201 272.28C101.201 272.557 101.185 272.851 101.153 273.16H94.1448C94.1981 274.024 94.4914 274.701 95.0248 275.192C95.5688 275.672 96.2248 275.912 96.9928 275.912C97.6221 275.912 98.1448 275.768 98.5608 275.48C98.9874 275.181 99.2861 274.787 99.4568 274.296H101.025C100.79 275.139 100.321 275.827 99.6168 276.36C98.9128 276.883 98.0381 277.144 96.9928 277.144C96.1608 277.144 95.4141 276.957 94.7528 276.584C94.1021 276.211 93.5901 275.683 93.2168 275C92.8434 274.307 92.6568 273.507 92.6568 272.6C92.6568 271.693 92.8381 270.899 93.2008 270.216C93.5634 269.533 94.0701 269.011 94.7208 268.648C95.3821 268.275 96.1394 268.088 96.9928 268.088C97.8248 268.088 98.5608 268.269 99.2008 268.632C99.8408 268.995 100.331 269.496 100.673 270.136C101.025 270.765 101.201 271.48 101.201 272.28ZM99.6968 271.976C99.6968 271.421 99.5741 270.947 99.3288 270.552C99.0834 270.147 98.7474 269.843 98.3208 269.64C97.9048 269.427 97.4408 269.32 96.9288 269.32C96.1928 269.32 95.5634 269.555 95.0408 270.024C94.5288 270.493 94.2354 271.144 94.1608 271.976H99.6968ZM102.579 272.584C102.579 271.688 102.76 270.904 103.123 270.232C103.485 269.549 103.981 269.021 104.611 268.648C105.251 268.275 105.965 268.088 106.755 268.088C107.512 268.088 108.173 268.259 108.739 268.6C109.315 268.931 109.736 269.341 110.003 269.832V268.232H111.475V281.16H110.003V275.384C109.725 275.875 109.299 276.291 108.723 276.632C108.147 276.973 107.475 277.144 106.707 277.144C105.939 277.144 105.24 276.952 104.611 276.568C103.981 276.184 103.485 275.645 103.123 274.952C102.76 274.259 102.579 273.469 102.579 272.584ZM110.003 272.6C110.003 271.939 109.869 271.363 109.603 270.872C109.336 270.381 108.973 270.008 108.515 269.752C108.067 269.485 107.571 269.352 107.027 269.352C106.483 269.352 105.987 269.48 105.539 269.736C105.091 269.992 104.733 270.365 104.467 270.856C104.2 271.347 104.067 271.923 104.067 272.584C104.067 273.256 104.2 273.843 104.467 274.344C104.733 274.835 105.091 275.213 105.539 275.48C105.987 275.736 106.483 275.864 107.027 275.864C107.571 275.864 108.067 275.736 108.515 275.48C108.973 275.213 109.336 274.835 109.603 274.344C109.869 273.843 110.003 273.261 110.003 272.6ZM121.711 268.232V277H120.255V275.704C119.978 276.152 119.588 276.504 119.087 276.76C118.596 277.005 118.052 277.128 117.455 277.128C116.772 277.128 116.159 276.989 115.615 276.712C115.071 276.424 114.639 275.997 114.319 275.432C114.01 274.867 113.855 274.179 113.855 273.368V268.232H115.295V273.176C115.295 274.04 115.514 274.707 115.951 275.176C116.388 275.635 116.986 275.864 117.743 275.864C118.522 275.864 119.135 275.624 119.583 275.144C120.031 274.664 120.255 273.965 120.255 273.048V268.232H121.711ZM124.922 266.808C124.644 266.808 124.41 266.712 124.218 266.52C124.026 266.328 123.93 266.093 123.93 265.816C123.93 265.539 124.026 265.304 124.218 265.112C124.41 264.92 124.644 264.824 124.922 264.824C125.188 264.824 125.412 264.92 125.594 265.112C125.786 265.304 125.882 265.539 125.882 265.816C125.882 266.093 125.786 266.328 125.594 266.52C125.412 266.712 125.188 266.808 124.922 266.808ZM125.626 268.232V277H124.17V268.232H125.626ZM129.563 269.656C129.819 269.155 130.182 268.765 130.651 268.488C131.131 268.211 131.712 268.072 132.395 268.072V269.576H132.011C130.379 269.576 129.563 270.461 129.563 272.232V277H128.107V268.232H129.563V269.656ZM142.076 272.28C142.076 272.557 142.06 272.851 142.028 273.16H135.02C135.073 274.024 135.366 274.701 135.9 275.192C136.444 275.672 137.1 275.912 137.868 275.912C138.497 275.912 139.02 275.768 139.436 275.48C139.862 275.181 140.161 274.787 140.332 274.296H141.9C141.665 275.139 141.196 275.827 140.492 276.36C139.788 276.883 138.913 277.144 137.868 277.144C137.036 277.144 136.289 276.957 135.628 276.584C134.977 276.211 134.465 275.683 134.092 275C133.718 274.307 133.532 273.507 133.532 272.6C133.532 271.693 133.713 270.899 134.076 270.216C134.438 269.533 134.945 269.011 135.596 268.648C136.257 268.275 137.014 268.088 137.868 268.088C138.7 268.088 139.436 268.269 140.076 268.632C140.716 268.995 141.206 269.496 141.548 270.136C141.9 270.765 142.076 271.48 142.076 272.28ZM140.572 271.976C140.572 271.421 140.449 270.947 140.204 270.552C139.958 270.147 139.622 269.843 139.196 269.64C138.78 269.427 138.316 269.32 137.804 269.32C137.068 269.32 136.438 269.555 135.916 270.024C135.404 270.493 135.11 271.144 135.036 271.976H140.572ZM154.542 268.072C155.224 268.072 155.832 268.216 156.366 268.504C156.899 268.781 157.32 269.203 157.63 269.768C157.939 270.333 158.094 271.021 158.094 271.832V277H156.654V272.04C156.654 271.165 156.435 270.499 155.998 270.04C155.571 269.571 154.99 269.336 154.254 269.336C153.496 269.336 152.894 269.581 152.446 270.072C151.998 270.552 151.774 271.251 151.774 272.168V277H150.334V272.04C150.334 271.165 150.115 270.499 149.678 270.04C149.251 269.571 148.67 269.336 147.934 269.336C147.176 269.336 146.574 269.581 146.126 270.072C145.678 270.552 145.454 271.251 145.454 272.168V277H143.998V268.232H145.454V269.496C145.742 269.037 146.126 268.685 146.606 268.44C147.096 268.195 147.635 268.072 148.222 268.072C148.958 268.072 149.608 268.237 150.174 268.568C150.739 268.899 151.16 269.384 151.438 270.024C151.683 269.405 152.088 268.925 152.654 268.584C153.219 268.243 153.848 268.072 154.542 268.072ZM162.258 269.432V274.6C162.258 275.027 162.349 275.331 162.53 275.512C162.711 275.683 163.026 275.768 163.474 275.768H164.546V277H163.234C162.423 277 161.815 276.813 161.41 276.44C161.005 276.067 160.802 275.453 160.802 274.6V269.432H159.666V268.232H160.802V266.024H162.258V268.232H164.546V269.432H162.258ZM170.582 268.072C171.649 268.072 172.513 268.397 173.174 269.048C173.835 269.688 174.166 270.616 174.166 271.832V277H172.726V272.04C172.726 271.165 172.507 270.499 172.07 270.04C171.633 269.571 171.035 269.336 170.278 269.336C169.51 269.336 168.897 269.576 168.438 270.056C167.99 270.536 167.766 271.235 167.766 272.152V277H166.31V268.232H167.766V269.48C168.054 269.032 168.443 268.685 168.934 268.44C169.435 268.195 169.985 268.072 170.582 268.072ZM179.649 277.144C178.977 277.144 178.374 277.032 177.841 276.808C177.307 276.573 176.886 276.253 176.577 275.848C176.267 275.432 176.097 274.957 176.065 274.424H177.569C177.611 274.861 177.814 275.219 178.177 275.496C178.55 275.773 179.035 275.912 179.633 275.912C180.187 275.912 180.625 275.789 180.945 275.544C181.265 275.299 181.425 274.989 181.425 274.616C181.425 274.232 181.254 273.949 180.913 273.768C180.571 273.576 180.043 273.389 179.329 273.208C178.678 273.037 178.145 272.867 177.729 272.696C177.323 272.515 176.971 272.253 176.673 271.912C176.385 271.56 176.241 271.101 176.241 270.536C176.241 270.088 176.374 269.677 176.641 269.304C176.907 268.931 177.286 268.637 177.777 268.424C178.267 268.2 178.827 268.088 179.457 268.088C180.427 268.088 181.211 268.333 181.809 268.824C182.406 269.315 182.726 269.987 182.769 270.84H181.313C181.281 270.381 181.094 270.013 180.753 269.736C180.422 269.459 179.974 269.32 179.409 269.32C178.886 269.32 178.47 269.432 178.161 269.656C177.851 269.88 177.697 270.173 177.697 270.536C177.697 270.824 177.787 271.064 177.969 271.256C178.161 271.437 178.395 271.587 178.673 271.704C178.961 271.811 179.355 271.933 179.857 272.072C180.486 272.243 180.998 272.413 181.393 272.584C181.787 272.744 182.123 272.989 182.401 273.32C182.689 273.651 182.838 274.083 182.849 274.616C182.849 275.096 182.715 275.528 182.449 275.912C182.182 276.296 181.803 276.6 181.313 276.824C180.833 277.037 180.278 277.144 179.649 277.144ZM188.626 272.584C188.626 271.688 188.807 270.904 189.17 270.232C189.532 269.549 190.028 269.021 190.658 268.648C191.298 268.275 192.007 268.088 192.786 268.088C193.554 268.088 194.22 268.253 194.786 268.584C195.351 268.915 195.772 269.331 196.05 269.832V268.232H197.522V277H196.05V275.368C195.762 275.88 195.33 276.307 194.754 276.648C194.188 276.979 193.527 277.144 192.77 277.144C191.991 277.144 191.287 276.952 190.658 276.568C190.028 276.184 189.532 275.645 189.17 274.952C188.807 274.259 188.626 273.469 188.626 272.584ZM196.05 272.6C196.05 271.939 195.916 271.363 195.65 270.872C195.383 270.381 195.02 270.008 194.562 269.752C194.114 269.485 193.618 269.352 193.074 269.352C192.53 269.352 192.034 269.48 191.586 269.736C191.138 269.992 190.78 270.365 190.514 270.856C190.247 271.347 190.114 271.923 190.114 272.584C190.114 273.256 190.247 273.843 190.514 274.344C190.78 274.835 191.138 275.213 191.586 275.48C192.034 275.736 192.53 275.864 193.074 275.864C193.618 275.864 194.114 275.736 194.562 275.48C195.02 275.213 195.383 274.835 195.65 274.344C195.916 273.843 196.05 273.261 196.05 272.6ZM204.254 268.072C205.321 268.072 206.185 268.397 206.846 269.048C207.507 269.688 207.838 270.616 207.838 271.832V277H206.398V272.04C206.398 271.165 206.179 270.499 205.742 270.04C205.305 269.571 204.707 269.336 203.95 269.336C203.182 269.336 202.569 269.576 202.11 270.056C201.662 270.536 201.438 271.235 201.438 272.152V277H199.982V268.232H201.438V269.48C201.726 269.032 202.115 268.685 202.606 268.44C203.107 268.195 203.657 268.072 204.254 268.072ZM209.672 272.584C209.672 271.688 209.854 270.904 210.216 270.232C210.579 269.549 211.075 269.021 211.704 268.648C212.344 268.275 213.059 268.088 213.848 268.088C214.531 268.088 215.166 268.248 215.752 268.568C216.339 268.877 216.787 269.288 217.096 269.8V265.16H218.568V277H217.096V275.352C216.808 275.875 216.382 276.307 215.816 276.648C215.251 276.979 214.59 277.144 213.832 277.144C213.054 277.144 212.344 276.952 211.704 276.568C211.075 276.184 210.579 275.645 210.216 274.952C209.854 274.259 209.672 273.469 209.672 272.584ZM217.096 272.6C217.096 271.939 216.963 271.363 216.696 270.872C216.43 270.381 216.067 270.008 215.608 269.752C215.16 269.485 214.664 269.352 214.12 269.352C213.576 269.352 213.08 269.48 212.632 269.736C212.184 269.992 211.827 270.365 211.56 270.856C211.294 271.347 211.16 271.923 211.16 272.584C211.16 273.256 211.294 273.843 211.56 274.344C211.827 274.835 212.184 275.213 212.632 275.48C213.08 275.736 213.576 275.864 214.12 275.864C214.664 275.864 215.16 275.736 215.608 275.48C216.067 275.213 216.43 274.835 216.696 274.344C216.963 273.843 217.096 273.261 217.096 272.6ZM228.911 268.088C229.668 268.088 230.329 268.253 230.895 268.584C231.471 268.915 231.897 269.331 232.175 269.832V268.232H233.647V277.192C233.647 277.992 233.476 278.701 233.135 279.32C232.793 279.949 232.303 280.44 231.663 280.792C231.033 281.144 230.297 281.32 229.455 281.32C228.303 281.32 227.343 281.048 226.575 280.504C225.807 279.96 225.353 279.219 225.215 278.28H226.655C226.815 278.813 227.145 279.24 227.647 279.56C228.148 279.891 228.751 280.056 229.455 280.056C230.255 280.056 230.905 279.805 231.407 279.304C231.919 278.803 232.175 278.099 232.175 277.192V275.352C231.887 275.864 231.46 276.291 230.895 276.632C230.329 276.973 229.668 277.144 228.911 277.144C228.132 277.144 227.423 276.952 226.783 276.568C226.153 276.184 225.657 275.645 225.295 274.952C224.932 274.259 224.751 273.469 224.751 272.584C224.751 271.688 224.932 270.904 225.295 270.232C225.657 269.549 226.153 269.021 226.783 268.648C227.423 268.275 228.132 268.088 228.911 268.088ZM232.175 272.6C232.175 271.939 232.041 271.363 231.775 270.872C231.508 270.381 231.145 270.008 230.687 269.752C230.239 269.485 229.743 269.352 229.199 269.352C228.655 269.352 228.159 269.48 227.711 269.736C227.263 269.992 226.905 270.365 226.639 270.856C226.372 271.347 226.239 271.923 226.239 272.584C226.239 273.256 226.372 273.843 226.639 274.344C226.905 274.835 227.263 275.213 227.711 275.48C228.159 275.736 228.655 275.864 229.199 275.864C229.743 275.864 230.239 275.736 230.687 275.48C231.145 275.213 231.508 274.835 231.775 274.344C232.041 273.843 232.175 273.261 232.175 272.6ZM236.859 266.808C236.582 266.808 236.347 266.712 236.155 266.52C235.963 266.328 235.867 266.093 235.867 265.816C235.867 265.539 235.963 265.304 236.155 265.112C236.347 264.92 236.582 264.824 236.859 264.824C237.126 264.824 237.35 264.92 237.531 265.112C237.723 265.304 237.819 265.539 237.819 265.816C237.819 266.093 237.723 266.328 237.531 266.52C237.35 266.712 237.126 266.808 236.859 266.808ZM237.563 268.232V277H236.107V268.232H237.563ZM243.309 275.656L246.029 268.232H247.581L244.141 277H242.445L239.005 268.232H240.573L243.309 275.656ZM249.765 266.808C249.488 266.808 249.253 266.712 249.061 266.52C248.869 266.328 248.773 266.093 248.773 265.816C248.773 265.539 248.869 265.304 249.061 265.112C249.253 264.92 249.488 264.824 249.765 264.824C250.032 264.824 250.256 264.92 250.437 265.112C250.629 265.304 250.725 265.539 250.725 265.816C250.725 266.093 250.629 266.328 250.437 266.52C250.256 266.712 250.032 266.808 249.765 266.808ZM250.469 268.232V277H249.013V268.232H250.469ZM257.223 268.072C258.289 268.072 259.153 268.397 259.815 269.048C260.476 269.688 260.807 270.616 260.807 271.832V277H259.367V272.04C259.367 271.165 259.148 270.499 258.711 270.04C258.273 269.571 257.676 269.336 256.919 269.336C256.151 269.336 255.537 269.576 255.079 270.056C254.631 270.536 254.407 271.235 254.407 272.152V277H252.951V268.232H254.407V269.48C254.695 269.032 255.084 268.685 255.575 268.44C256.076 268.195 256.625 268.072 257.223 268.072ZM266.801 268.088C267.558 268.088 268.22 268.253 268.785 268.584C269.361 268.915 269.788 269.331 270.065 269.832V268.232H271.537V277.192C271.537 277.992 271.366 278.701 271.025 279.32C270.684 279.949 270.193 280.44 269.553 280.792C268.924 281.144 268.188 281.32 267.345 281.32C266.193 281.32 265.233 281.048 264.465 280.504C263.697 279.96 263.244 279.219 263.105 278.28H264.545C264.705 278.813 265.036 279.24 265.537 279.56C266.038 279.891 266.641 280.056 267.345 280.056C268.145 280.056 268.796 279.805 269.297 279.304C269.809 278.803 270.065 278.099 270.065 277.192V275.352C269.777 275.864 269.35 276.291 268.785 276.632C268.22 276.973 267.558 277.144 266.801 277.144C266.022 277.144 265.313 276.952 264.673 276.568C264.044 276.184 263.548 275.645 263.185 274.952C262.822 274.259 262.641 273.469 262.641 272.584C262.641 271.688 262.822 270.904 263.185 270.232C263.548 269.549 264.044 269.021 264.673 268.648C265.313 268.275 266.022 268.088 266.801 268.088ZM270.065 272.6C270.065 271.939 269.932 271.363 269.665 270.872C269.398 270.381 269.036 270.008 268.577 269.752C268.129 269.485 267.633 269.352 267.089 269.352C266.545 269.352 266.049 269.48 265.601 269.736C265.153 269.992 264.796 270.365 264.529 270.856C264.262 271.347 264.129 271.923 264.129 272.584C264.129 273.256 264.262 273.843 264.529 274.344C264.796 274.835 265.153 275.213 265.601 275.48C266.049 275.736 266.545 275.864 267.089 275.864C267.633 275.864 268.129 275.736 268.577 275.48C269.036 275.213 269.398 274.835 269.665 274.344C269.932 273.843 270.065 273.261 270.065 272.6ZM285.815 268.232L280.535 281.128H279.031L280.759 276.904L277.223 268.232H278.839L281.591 275.336L284.311 268.232H285.815ZM291.103 277.144C290.282 277.144 289.535 276.957 288.863 276.584C288.202 276.211 287.679 275.683 287.295 275C286.922 274.307 286.735 273.507 286.735 272.6C286.735 271.704 286.927 270.915 287.311 270.232C287.706 269.539 288.239 269.011 288.911 268.648C289.583 268.275 290.335 268.088 291.167 268.088C291.999 268.088 292.751 268.275 293.423 268.648C294.095 269.011 294.623 269.533 295.007 270.216C295.402 270.899 295.599 271.693 295.599 272.6C295.599 273.507 295.396 274.307 294.991 275C294.596 275.683 294.058 276.211 293.375 276.584C292.692 276.957 291.935 277.144 291.103 277.144ZM291.103 275.864C291.626 275.864 292.116 275.741 292.575 275.496C293.034 275.251 293.402 274.883 293.679 274.392C293.967 273.901 294.111 273.304 294.111 272.6C294.111 271.896 293.972 271.299 293.695 270.808C293.418 270.317 293.055 269.955 292.607 269.72C292.159 269.475 291.674 269.352 291.151 269.352C290.618 269.352 290.127 269.475 289.679 269.72C289.242 269.955 288.89 270.317 288.623 270.808C288.356 271.299 288.223 271.896 288.223 272.6C288.223 273.315 288.351 273.917 288.607 274.408C288.874 274.899 289.226 275.267 289.663 275.512C290.1 275.747 290.58 275.864 291.103 275.864ZM305.289 268.232V277H303.833V275.704C303.556 276.152 303.167 276.504 302.665 276.76C302.175 277.005 301.631 277.128 301.033 277.128C300.351 277.128 299.737 276.989 299.193 276.712C298.649 276.424 298.217 275.997 297.897 275.432C297.588 274.867 297.433 274.179 297.433 273.368V268.232H298.873V273.176C298.873 274.04 299.092 274.707 299.529 275.176C299.967 275.635 300.564 275.864 301.321 275.864C302.1 275.864 302.713 275.624 303.161 275.144C303.609 274.664 303.833 273.965 303.833 273.048V268.232H305.289ZM315.117 277.144C314.445 277.144 313.843 277.032 313.309 276.808C312.776 276.573 312.355 276.253 312.045 275.848C311.736 275.432 311.565 274.957 311.533 274.424H313.037C313.08 274.861 313.283 275.219 313.645 275.496C314.019 275.773 314.504 275.912 315.101 275.912C315.656 275.912 316.093 275.789 316.413 275.544C316.733 275.299 316.893 274.989 316.893 274.616C316.893 274.232 316.723 273.949 316.381 273.768C316.04 273.576 315.512 273.389 314.797 273.208C314.147 273.037 313.613 272.867 313.197 272.696C312.792 272.515 312.44 272.253 312.141 271.912C311.853 271.56 311.709 271.101 311.709 270.536C311.709 270.088 311.843 269.677 312.109 269.304C312.376 268.931 312.755 268.637 313.245 268.424C313.736 268.2 314.296 268.088 314.925 268.088C315.896 268.088 316.68 268.333 317.277 268.824C317.875 269.315 318.195 269.987 318.237 270.84H316.781C316.749 270.381 316.563 270.013 316.221 269.736C315.891 269.459 315.443 269.32 314.877 269.32C314.355 269.32 313.939 269.432 313.629 269.656C313.32 269.88 313.165 270.173 313.165 270.536C313.165 270.824 313.256 271.064 313.437 271.256C313.629 271.437 313.864 271.587 314.141 271.704C314.429 271.811 314.824 271.933 315.325 272.072C315.955 272.243 316.467 272.413 316.861 272.584C317.256 272.744 317.592 272.989 317.869 273.32C318.157 273.651 318.307 274.083 318.317 274.616C318.317 275.096 318.184 275.528 317.917 275.912C317.651 276.296 317.272 276.6 316.781 276.824C316.301 277.037 315.747 277.144 315.117 277.144ZM324.197 277.144C323.375 277.144 322.629 276.957 321.957 276.584C321.295 276.211 320.773 275.683 320.389 275C320.015 274.307 319.829 273.507 319.829 272.6C319.829 271.704 320.021 270.915 320.405 270.232C320.799 269.539 321.333 269.011 322.005 268.648C322.677 268.275 323.429 268.088 324.261 268.088C325.093 268.088 325.845 268.275 326.517 268.648C327.189 269.011 327.717 269.533 328.101 270.216C328.495 270.899 328.693 271.693 328.693 272.6C328.693 273.507 328.49 274.307 328.085 275C327.69 275.683 327.151 276.211 326.469 276.584C325.786 276.957 325.029 277.144 324.197 277.144ZM324.197 275.864C324.719 275.864 325.21 275.741 325.669 275.496C326.127 275.251 326.495 274.883 326.773 274.392C327.061 273.901 327.205 273.304 327.205 272.6C327.205 271.896 327.066 271.299 326.789 270.808C326.511 270.317 326.149 269.955 325.701 269.72C325.253 269.475 324.767 269.352 324.245 269.352C323.711 269.352 323.221 269.475 322.773 269.72C322.335 269.955 321.983 270.317 321.717 270.808C321.45 271.299 321.317 271.896 321.317 272.6C321.317 273.315 321.445 273.917 321.701 274.408C321.967 274.899 322.319 275.267 322.757 275.512C323.194 275.747 323.674 275.864 324.197 275.864ZM332.063 265.16V277H330.607V265.16H332.063ZM342.321 268.232V277H340.865V275.704C340.587 276.152 340.198 276.504 339.697 276.76C339.206 277.005 338.662 277.128 338.065 277.128C337.382 277.128 336.769 276.989 336.225 276.712C335.681 276.424 335.249 275.997 334.929 275.432C334.619 274.867 334.465 274.179 334.465 273.368V268.232H335.905V273.176C335.905 274.04 336.123 274.707 336.561 275.176C336.998 275.635 337.595 275.864 338.353 275.864C339.131 275.864 339.745 275.624 340.193 275.144C340.641 274.664 340.865 273.965 340.865 273.048V268.232H342.321ZM346.555 269.432V274.6C346.555 275.027 346.646 275.331 346.827 275.512C347.008 275.683 347.323 275.768 347.771 275.768H348.843V277H347.531C346.72 277 346.112 276.813 345.707 276.44C345.302 276.067 345.099 275.453 345.099 274.6V269.432H343.963V268.232H345.099V266.024H346.555V268.232H348.843V269.432H346.555ZM351.359 266.808C351.082 266.808 350.847 266.712 350.655 266.52C350.463 266.328 350.367 266.093 350.367 265.816C350.367 265.539 350.463 265.304 350.655 265.112C350.847 264.92 351.082 264.824 351.359 264.824C351.626 264.824 351.85 264.92 352.031 265.112C352.223 265.304 352.319 265.539 352.319 265.816C352.319 266.093 352.223 266.328 352.031 266.52C351.85 266.712 351.626 266.808 351.359 266.808ZM352.063 268.232V277H350.607V268.232H352.063ZM358.369 277.144C357.547 277.144 356.801 276.957 356.129 276.584C355.467 276.211 354.945 275.683 354.561 275C354.187 274.307 354.001 273.507 354.001 272.6C354.001 271.704 354.193 270.915 354.577 270.232C354.971 269.539 355.505 269.011 356.177 268.648C356.849 268.275 357.601 268.088 358.433 268.088C359.265 268.088 360.017 268.275 360.689 268.648C361.361 269.011 361.889 269.533 362.273 270.216C362.667 270.899 362.865 271.693 362.865 272.6C362.865 273.507 362.662 274.307 362.257 275C361.862 275.683 361.323 276.211 360.641 276.584C359.958 276.957 359.201 277.144 358.369 277.144ZM358.369 275.864C358.891 275.864 359.382 275.741 359.841 275.496C360.299 275.251 360.667 274.883 360.945 274.392C361.233 273.901 361.377 273.304 361.377 272.6C361.377 271.896 361.238 271.299 360.961 270.808C360.683 270.317 360.321 269.955 359.873 269.72C359.425 269.475 358.939 269.352 358.417 269.352C357.883 269.352 357.393 269.475 356.945 269.72C356.507 269.955 356.155 270.317 355.889 270.808C355.622 271.299 355.489 271.896 355.489 272.6C355.489 273.315 355.617 273.917 355.873 274.408C356.139 274.899 356.491 275.267 356.929 275.512C357.366 275.747 357.846 275.864 358.369 275.864ZM369.051 268.072C370.118 268.072 370.982 268.397 371.643 269.048C372.304 269.688 372.635 270.616 372.635 271.832V277H371.195V272.04C371.195 271.165 370.976 270.499 370.539 270.04C370.102 269.571 369.504 269.336 368.747 269.336C367.979 269.336 367.366 269.576 366.907 270.056C366.459 270.536 366.235 271.235 366.235 272.152V277H364.779V268.232H366.235V269.48C366.523 269.032 366.912 268.685 367.403 268.44C367.904 268.195 368.454 268.072 369.051 268.072ZM375.477 277.096C375.2 277.096 374.965 277 374.773 276.808C374.581 276.616 374.485 276.381 374.485 276.104C374.485 275.827 374.581 275.592 374.773 275.4C374.965 275.208 375.2 275.112 375.477 275.112C375.744 275.112 375.968 275.208 376.149 275.4C376.341 275.592 376.437 275.827 376.437 276.104C376.437 276.381 376.341 276.616 376.149 276.808C375.968 277 375.744 277.096 375.477 277.096ZM379.877 274.984L378.085 279.288H377.109L378.277 274.984H379.877Z" fill="#F4F6FC"/>
<path d="M96.032 214.672H107.072V220H89.312V186.496H96.032V214.672ZM136.063 206.128C136.063 207.088 135.999 207.952 135.871 208.72H116.431C116.591 210.64 117.263 212.144 118.447 213.232C119.631 214.32 121.087 214.864 122.815 214.864C125.311 214.864 127.087 213.792 128.143 211.648H135.391C134.623 214.208 133.151 216.32 130.975 217.984C128.799 219.616 126.127 220.432 122.959 220.432C120.399 220.432 118.095 219.872 116.047 218.752C114.031 217.6 112.447 215.984 111.295 213.904C110.175 211.824 109.615 209.424 109.615 206.704C109.615 203.952 110.175 201.536 111.295 199.456C112.415 197.376 113.983 195.776 115.999 194.656C118.015 193.536 120.335 192.976 122.959 192.976C125.487 192.976 127.743 193.52 129.727 194.608C131.743 195.696 133.295 197.248 134.383 199.264C135.503 201.248 136.063 203.536 136.063 206.128ZM129.103 204.208C129.071 202.48 128.447 201.104 127.231 200.08C126.015 199.024 124.527 198.496 122.767 198.496C121.103 198.496 119.695 199.008 118.543 200.032C117.423 201.024 116.735 202.416 116.479 204.208H129.103ZM148.792 198.928V211.792C148.792 212.688 149 213.344 149.416 213.76C149.864 214.144 150.6 214.336 151.624 214.336H154.744V220H150.52C144.856 220 142.024 217.248 142.024 211.744V198.928H138.856V193.408H142.024V186.832H148.792V193.408H154.744V198.928H148.792ZM169.754 220.432C167.578 220.432 165.626 220.048 163.898 219.28C162.17 218.48 160.794 217.408 159.77 216.064C158.778 214.72 158.234 213.232 158.138 211.6H164.906C165.034 212.624 165.53 213.472 166.394 214.144C167.29 214.816 168.394 215.152 169.706 215.152C170.986 215.152 171.978 214.896 172.682 214.384C173.418 213.872 173.786 213.216 173.786 212.416C173.786 211.552 173.338 210.912 172.442 210.496C171.578 210.048 170.186 209.568 168.266 209.056C166.282 208.576 164.65 208.08 163.37 207.568C162.122 207.056 161.034 206.272 160.106 205.216C159.21 204.16 158.762 202.736 158.762 200.944C158.762 199.472 159.178 198.128 160.01 196.912C160.874 195.696 162.09 194.736 163.658 194.032C165.258 193.328 167.13 192.976 169.274 192.976C172.442 192.976 174.97 193.776 176.858 195.376C178.746 196.944 179.786 199.072 179.978 201.76H173.546C173.45 200.704 173.002 199.872 172.202 199.264C171.434 198.624 170.394 198.304 169.082 198.304C167.866 198.304 166.922 198.528 166.25 198.976C165.61 199.424 165.29 200.048 165.29 200.848C165.29 201.744 165.738 202.432 166.634 202.912C167.53 203.36 168.922 203.824 170.81 204.304C172.73 204.784 174.314 205.28 175.562 205.792C176.81 206.304 177.882 207.104 178.778 208.192C179.706 209.248 180.186 210.656 180.218 212.416C180.218 213.952 179.786 215.328 178.922 216.544C178.09 217.76 176.874 218.72 175.274 219.424C173.706 220.096 171.866 220.432 169.754 220.432ZM219.971 186.496V191.92H211.043V220H204.323V191.92H195.395V186.496H219.971ZM223.146 206.608C223.146 203.92 223.674 201.536 224.73 199.456C225.819 197.376 227.275 195.776 229.099 194.656C230.955 193.536 233.019 192.976 235.291 192.976C237.275 192.976 239.003 193.376 240.475 194.176C241.979 194.976 243.179 195.984 244.075 197.2V193.408H250.843V220H244.075V216.112C243.211 217.36 242.011 218.4 240.475 219.232C238.971 220.032 237.227 220.432 235.243 220.432C233.003 220.432 230.955 219.856 229.099 218.704C227.275 217.552 225.819 215.936 224.73 213.856C223.674 211.744 223.146 209.328 223.146 206.608ZM244.075 206.704C244.075 205.072 243.755 203.68 243.115 202.528C242.475 201.344 241.611 200.448 240.523 199.84C239.435 199.2 238.267 198.88 237.019 198.88C235.771 198.88 234.619 199.184 233.562 199.792C232.507 200.4 231.643 201.296 230.971 202.48C230.331 203.632 230.011 205.008 230.011 206.608C230.011 208.208 230.331 209.616 230.971 210.832C231.643 212.016 232.507 212.928 233.562 213.568C234.651 214.208 235.803 214.528 237.019 214.528C238.267 214.528 239.435 214.224 240.523 213.616C241.611 212.976 242.475 212.08 243.115 210.928C243.755 209.744 244.075 208.336 244.075 206.704ZM264.126 184.48V220H257.406V184.48H264.126ZM286.509 220L277.485 208.672V220H270.765V184.48H277.485V204.688L286.413 193.408H295.149L283.437 206.752L295.245 220H286.509ZM307.484 185.92L306.716 209.104H301.052L300.236 185.92H307.484ZM304.028 220.336C302.812 220.336 301.804 219.968 301.004 219.232C300.236 218.464 299.852 217.52 299.852 216.4C299.852 215.28 300.236 214.352 301.004 213.616C301.804 212.848 302.812 212.464 304.028 212.464C305.212 212.464 306.188 212.848 306.956 213.616C307.724 214.352 308.108 215.28 308.108 216.4C308.108 217.52 307.724 218.464 306.956 219.232C306.188 219.968 305.212 220.336 304.028 220.336Z" fill="white"/>
<g filter="url(#filter0_d_9049_19120)">
<rect x="86" y="305" width="223" height="56" rx="4" fill="#FCD980"/>
<rect x="86.5" y="305.5" width="222" height="55" rx="3.5" stroke="#1C1E53"/>
<path d="M152.77 340.264C151.133 340.264 149.836 339.811 148.879 338.905C147.923 337.986 147.444 336.676 147.444 334.977V331.804C147.444 330.105 147.923 328.802 148.879 327.895C149.836 326.976 151.133 326.516 152.77 326.516C154.394 326.516 155.646 326.963 156.528 327.857C157.422 328.739 157.868 329.953 157.868 331.502V331.615H155.413V331.426C155.413 330.646 155.193 330.004 154.753 329.5C154.324 328.997 153.664 328.745 152.77 328.745C151.888 328.745 151.196 329.016 150.692 329.557C150.189 330.098 149.937 330.835 149.937 331.766V335.015C149.937 335.934 150.189 336.67 150.692 337.224C151.196 337.765 151.888 338.036 152.77 338.036C153.664 338.036 154.324 337.784 154.753 337.281C155.193 336.764 155.413 336.122 155.413 335.354V335.015H157.868V335.279C157.868 336.827 157.422 338.049 156.528 338.942C155.646 339.824 154.394 340.264 152.77 340.264ZM164.432 340.264C163.5 340.264 162.663 340.076 161.92 339.698C161.177 339.32 160.592 338.773 160.164 338.055C159.736 337.337 159.522 336.475 159.522 335.468V335.166C159.522 334.158 159.736 333.296 160.164 332.578C160.592 331.861 161.177 331.313 161.92 330.935C162.663 330.558 163.5 330.369 164.432 330.369C165.363 330.369 166.201 330.558 166.943 330.935C167.686 331.313 168.272 331.861 168.7 332.578C169.128 333.296 169.342 334.158 169.342 335.166V335.468C169.342 336.475 169.128 337.337 168.7 338.055C168.272 338.773 167.686 339.32 166.943 339.698C166.201 340.076 165.363 340.264 164.432 340.264ZM164.432 338.149C165.162 338.149 165.766 337.916 166.245 337.451C166.723 336.972 166.962 336.292 166.962 335.411V335.222C166.962 334.341 166.723 333.667 166.245 333.202C165.779 332.723 165.175 332.484 164.432 332.484C163.702 332.484 163.097 332.723 162.619 333.202C162.141 333.667 161.901 334.341 161.901 335.222V335.411C161.901 336.292 162.141 336.972 162.619 337.451C163.097 337.916 163.702 338.149 164.432 338.149ZM171.538 340V330.633H173.88V331.861H174.22C174.371 331.533 174.654 331.225 175.07 330.935C175.485 330.633 176.114 330.482 176.958 330.482C177.688 330.482 178.324 330.652 178.865 330.992C179.419 331.319 179.847 331.779 180.149 332.371C180.452 332.95 180.603 333.63 180.603 334.41V340H178.223V334.599C178.223 333.894 178.047 333.365 177.694 333.013C177.355 332.66 176.864 332.484 176.221 332.484C175.491 332.484 174.925 332.729 174.522 333.22C174.119 333.699 173.918 334.372 173.918 335.241V340H171.538ZM186.505 340C185.888 340 185.384 339.811 184.994 339.433C184.616 339.043 184.428 338.527 184.428 337.885V332.597H182.086V330.633H184.428V327.725H186.807V330.633H189.375V332.597H186.807V337.469C186.807 337.847 186.983 338.036 187.336 338.036H189.149V340H186.505ZM194.437 340.264C193.77 340.264 193.172 340.151 192.643 339.924C192.115 339.685 191.693 339.345 191.378 338.905C191.076 338.451 190.925 337.904 190.925 337.262C190.925 336.62 191.076 336.085 191.378 335.657C191.693 335.216 192.121 334.889 192.662 334.675C193.216 334.448 193.846 334.335 194.551 334.335H197.119V333.806C197.119 333.365 196.98 333.006 196.703 332.729C196.426 332.44 195.986 332.295 195.382 332.295C194.79 332.295 194.349 332.434 194.06 332.711C193.77 332.975 193.581 333.321 193.493 333.749L191.303 333.013C191.454 332.534 191.693 332.1 192.02 331.71C192.36 331.307 192.807 330.986 193.361 330.747C193.927 330.495 194.614 330.369 195.419 330.369C196.653 330.369 197.629 330.677 198.346 331.294C199.064 331.911 199.423 332.805 199.423 333.976V337.469C199.423 337.847 199.599 338.036 199.952 338.036H200.707V340H199.121C198.655 340 198.271 339.887 197.969 339.66C197.667 339.433 197.515 339.131 197.515 338.754V338.735H197.157C197.106 338.886 196.993 339.087 196.817 339.339C196.641 339.578 196.364 339.792 195.986 339.981C195.608 340.17 195.092 340.264 194.437 340.264ZM194.853 338.338C195.52 338.338 196.061 338.156 196.477 337.791C196.905 337.413 197.119 336.916 197.119 336.299V336.11H194.721C194.28 336.11 193.934 336.204 193.682 336.393C193.43 336.582 193.304 336.846 193.304 337.186C193.304 337.526 193.436 337.803 193.701 338.017C193.965 338.231 194.349 338.338 194.853 338.338ZM206.662 340.264C205.756 340.264 204.931 340.076 204.188 339.698C203.458 339.32 202.879 338.773 202.451 338.055C202.023 337.337 201.809 336.469 201.809 335.449V335.184C201.809 334.165 202.023 333.296 202.451 332.578C202.879 331.861 203.458 331.313 204.188 330.935C204.931 330.558 205.756 330.369 206.662 330.369C207.556 330.369 208.324 330.526 208.966 330.841C209.608 331.156 210.125 331.59 210.515 332.144C210.918 332.685 211.182 333.302 211.308 333.995L209.004 334.486C208.954 334.108 208.84 333.768 208.664 333.466C208.488 333.164 208.236 332.925 207.909 332.748C207.594 332.572 207.197 332.484 206.719 332.484C206.241 332.484 205.806 332.591 205.416 332.805C205.038 333.006 204.736 333.315 204.51 333.73C204.296 334.133 204.188 334.631 204.188 335.222V335.411C204.188 336.003 204.296 336.506 204.51 336.922C204.736 337.325 205.038 337.633 205.416 337.847C205.806 338.049 206.241 338.149 206.719 338.149C207.437 338.149 207.978 337.967 208.343 337.602C208.721 337.224 208.96 336.733 209.061 336.129L211.365 336.676C211.201 337.344 210.918 337.954 210.515 338.508C210.125 339.049 209.608 339.478 208.966 339.792C208.324 340.107 207.556 340.264 206.662 340.264ZM216.602 340C215.985 340 215.481 339.811 215.091 339.433C214.713 339.043 214.525 338.527 214.525 337.885V332.597H212.183V330.633H214.525V327.725H216.904V330.633H219.472V332.597H216.904V337.469C216.904 337.847 217.08 338.036 217.433 338.036H219.246V340H216.602ZM231.444 340.264C230.362 340.264 229.43 340.069 228.649 339.679C227.882 339.276 227.29 338.71 226.874 337.979C226.471 337.237 226.27 336.362 226.27 335.354V326.781H228.763V335.43C228.763 336.236 228.989 336.871 229.443 337.337C229.908 337.803 230.576 338.036 231.444 338.036C232.313 338.036 232.974 337.803 233.427 337.337C233.893 336.871 234.126 336.236 234.126 335.43V326.781H236.619V335.354C236.619 336.362 236.411 337.237 235.996 337.979C235.593 338.71 235.001 339.276 234.22 339.679C233.452 340.069 232.527 340.264 231.444 340.264ZM242.999 340.264C241.778 340.264 240.777 340 239.997 339.471C239.216 338.942 238.744 338.187 238.58 337.205L240.771 336.639C240.859 337.079 241.004 337.425 241.205 337.677C241.419 337.929 241.677 338.112 241.98 338.225C242.294 338.326 242.634 338.376 242.999 338.376C243.553 338.376 243.962 338.282 244.227 338.093C244.491 337.891 244.623 337.646 244.623 337.356C244.623 337.067 244.497 336.846 244.246 336.695C243.994 336.532 243.591 336.399 243.037 336.299L242.508 336.204C241.854 336.078 241.256 335.908 240.714 335.694C240.173 335.468 239.739 335.159 239.411 334.769C239.084 334.379 238.92 333.875 238.92 333.258C238.92 332.327 239.26 331.615 239.94 331.124C240.62 330.621 241.514 330.369 242.622 330.369C243.667 330.369 244.535 330.602 245.228 331.068C245.92 331.533 246.373 332.144 246.587 332.899L244.378 333.579C244.277 333.101 244.069 332.761 243.755 332.56C243.453 332.358 243.075 332.257 242.622 332.257C242.168 332.257 241.822 332.339 241.583 332.503C241.344 332.654 241.224 332.868 241.224 333.145C241.224 333.447 241.35 333.674 241.602 333.825C241.854 333.963 242.194 334.07 242.622 334.146L243.15 334.24C243.855 334.366 244.491 334.536 245.058 334.75C245.637 334.952 246.09 335.247 246.417 335.638C246.757 336.015 246.927 336.532 246.927 337.186C246.927 338.168 246.568 338.93 245.851 339.471C245.146 340 244.195 340.264 242.999 340.264Z" fill="#1C1E53"/>
</g>
<defs>
<filter id="filter0_d_9049_19120" x="82" y="305" width="231" height="64" filterUnits="userSpaceOnUse" color-interpolation-filters="sRGB">
<feFlood flood-opacity="0" result="BackgroundImageFix"/>
<feColorMatrix in="SourceAlpha" type="matrix" values="0 0 0 0 0 0 0 0 0 0 0 0 0 0 0 0 0 0 127 0" result="hardAlpha"/>
<feOffset dy="4"/>
<feGaussianBlur stdDeviation="2"/>
<feComposite in2="hardAlpha" operator="out"/>
<feColorMatrix type="matrix" values="0 0 0 0 0.166667 0 0 0 0 0.145833 0 0 0 0 0.145833 0 0 0 0.12 0"/>
<feBlend mode="normal" in2="BackgroundImageFix" result="effect1_dropShadow_9049_19120"/>
<feBlend mode="normal" in="SourceGraphic" in2="effect1_dropShadow_9049_19120" result="shape"/>
</filter>
</defs>
</svg>
